<?xml version="1.0" encoding="UTF-8" standalone="no"?>
<svg
   xmlns:dc="http://purl.org/dc/elements/1.1/"
   xmlns:cc="http://creativecommons.org/ns#"
   xmlns:rdf="http://www.w3.org/1999/02/22-rdf-syntax-ns#"
   xmlns:svg="http://www.w3.org/2000/svg"
   xmlns="http://www.w3.org/2000/svg"
   viewBox="0 0 1272.2163 562.10742"
   height="562.10742"
   width="1272.2163"
   xml:space="preserve"
   id="svg2"
   version="1.1"><metadata
     id="metadata8"><rdf:RDF><cc:Work
         rdf:about=""><dc:format>image/svg+xml</dc:format><dc:type
           rdf:resource="http://purl.org/dc/dcmitype/StillImage" /><dc:title></dc:title></cc:Work></rdf:RDF></metadata><defs
     id="defs6"><clipPath
       id="clipPath20"
       clipPathUnits="userSpaceOnUse"><path
         id="path18"
         d="M 0,1.206994e-5 H 959.76 V 540.00001 H 0 Z" /></clipPath><clipPath
       id="clipPath30"
       clipPathUnits="userSpaceOnUse"><path
         id="path28"
         d="M 0,0 H 960 V 540 H 0 Z" /></clipPath></defs><g
     transform="matrix(1.3333333,0,0,-1.3333333,-7.7837133,592.76333)"
     id="g10"><g
       id="g12" /><g
       id="g14"><g
         clip-path="url(#clipPath20)"
         id="g16"><path
           id="path22"
           style="fill:#ffffff;fill-opacity:1;fill-rule:nonzero;stroke:none"
           d="M 0,540 H 959.76 V 1.206994e-5 H 0 Z" /></g></g><g
       id="g24"><g
         clip-path="url(#clipPath30)"
         id="g26"><path
           id="path32"
           style="fill:#ffffff;fill-opacity:1;fill-rule:nonzero;stroke:none"
           d="M 0,540 H 960 V 1.40816e-5 H 0 Z" /><g
           transform="matrix(0.24,0,0,0.24,73.2,-59.03999)"
           id="g34"><text
             id="text38"
             style="font-variant:normal;font-weight:300;font-size:133.33329773px;font-family:Calibri;-inkscape-font-specification:Calibri-Light;writing-mode:lr-tb;fill:#000000;fill-opacity:1;fill-rule:nonzero;stroke:none"
             transform="matrix(1,0,0,-1,0,2250)"><tspan
               id="tspan36"
               y="0"
               x="0 87.506645 156.1333 199.87994 229.57327 285.02658 348.05325 377.74658 407.9599 459.5199 525.66656 582.43988 651.70648 697.53314 727.2265 770.97314 829.82648 860.03979 924.22644 979.95978 1049.2264 1115.373 1161.213 1190.9064 1296.6396 1362.7864 1430.7463 1474.4929 1504.7063 1534.3997 1594.813 1652.0396 1721.8263 1791.0929">Optical security experiment layout</tspan></text>
</g><g
           transform="matrix(0.24,0,0,0.24,363.1608,-179.52)"
           id="g40"><text
             id="text44"
             style="font-variant:normal;font-weight:normal;font-size:75px;font-family:Calibri;-inkscape-font-specification:Calibri;writing-mode:lr-tb;fill:#ff0000;fill-opacity:1;fill-rule:nonzero;stroke:none"
             transform="matrix(1,0,0,-1,0,2250)"><tspan
               id="tspan42"
               y="0"
               x="0 43.23 60.435001 77.639999 115.17 154.72501 171.92999 189.13499 225.09 284.97 324.52499 364.07999 400.035 417.23999 455.29501 472.5 495.405 533.46002 571.51501 609.57001 628.34998 666.40503 683.60999 720.09003 766.995 796.65002">Alien lambda 1 (195.3 THz)</tspan></text>
</g><g
           transform="matrix(0.24,0,0,0.24,409.7976,-461.76)"
           id="g46"><text
             id="text50"
             style="font-variant:normal;font-weight:normal;font-size:75px;font-family:Calibri;-inkscape-font-specification:Calibri;writing-mode:lr-tb;fill:#00b0f0;fill-opacity:1;fill-rule:nonzero;stroke:none"
             transform="matrix(1,0,0,-1,0,2250)"><tspan
               id="tspan48"
               y="0"
               x="0 43.23 60.435001 77.639999 115.17 154.72501 171.92999 189.13499 225.09 284.97 324.52499 364.07999 400.035 417.23999 455.29501 472.5 495.405 533.46002 571.51501 609.57001 628.34998 666.40503 683.60999 720.09003 766.995 796.65002">Alien lambda 2 (195.2 THz)</tspan></text>
</g><path
           id="path52"
           style="fill:#ffffff;fill-opacity:1;fill-rule:nonzero;stroke:none"
           d="m 849.7609,382.2525 h 94.195 v -29.0812 h -94.195 z" /><g
           transform="matrix(7.874016e-5,0,0,-7.874016e-5,849.7609,382.2525)"
           id="g54"><path
             id="path56"
             style="fill:none;stroke:#2f528f;stroke-width:12700;stroke-linecap:butt;stroke-linejoin:miter;stroke-miterlimit:8;stroke-dasharray:none;stroke-opacity:1"
             d="M 0,0 H 1196276 V 369332 H 0 Z" /></g><g
           transform="matrix(0.24,0,0,0.24,870.2959,-176.88)"
           id="g58"><text
             id="text62"
             style="font-variant:normal;font-weight:normal;font-size:58.33332825px;font-family:Calibri;-inkscape-font-specification:Calibri;writing-mode:lr-tb;fill:#000000;fill-opacity:1;fill-rule:nonzero;stroke:none"
             transform="matrix(1,0,0,-1,0,2250)"><tspan
               id="tspan60"
               y="0"
               x="0 31.249165 83.323326 96.314163 120.79666 148.89583 171.80333 200.95248">CW Laser</tspan></text>
</g><g
           transform="matrix(-7.874016e-5,0,0,-7.874016e-5,849.761,367.712)"
           id="g64"><path
             id="path66"
             style="fill:none;stroke:#4472c4;stroke-width:6350;stroke-linecap:butt;stroke-linejoin:miter;stroke-miterlimit:8;stroke-dasharray:none;stroke-opacity:1"
             d="M 0,0 H 732922.5 V 532957 H 1465845" /></g><g
           transform="matrix(0.24,0,0,0.24,847.6301,-203.76)"
           id="g68"><text
             id="text72"
             style="font-variant:normal;font-weight:normal;font-size:58.33332825px;font-family:Calibri;-inkscape-font-specification:Calibri;writing-mode:lr-tb;fill:#000000;fill-opacity:1;fill-rule:nonzero;stroke:none"
             transform="matrix(1,0,0,-1,0,2250)"><tspan
               id="tspan70"
               y="0"
               x="0 18.748333 46.888332 93.228325 139.56833 153.12498 183.83165 211.44666 224.47832 247.36832 260.92499 288.53998 319.24664 347.38666">Jamming signal</tspan></text>
</g><g
           transform="matrix(7.874016e-5,0,0,-7.874016e-5,191.2373,423.3755)"
           id="g74"><path
             id="path76"
             style="fill:none;stroke:#2f528f;stroke-width:12700;stroke-linecap:butt;stroke-linejoin:miter;stroke-miterlimit:8;stroke-dasharray:none;stroke-opacity:1"
             d="M 0,367882.5 183941.7,0 H 649341.2 L 833282,367882.5 649341.2,735765 H 183941.7 Z" /></g><g
           transform="matrix(0.24,0,0,0.24,208.9187,-148.08)"
           id="g78"><text
             id="text82"
             style="font-variant:normal;font-weight:bold;font-size:37.5px;font-family:Calibri;-inkscape-font-specification:Calibri-Bold;writing-mode:lr-tb;fill:#000000;fill-opacity:1;fill-rule:nonzero;stroke:none"
             transform="matrix(1,0,0,-1,0,2250)"><tspan
               id="tspan80"
               y="0"
               x="0 21.352501 46.8675 69.794998 93.247498">ROADM</tspan></text>
</g><g
           transform="matrix(7.874016e-5,0,0,-7.874016e-5,191.2165,140.3876)"
           id="g84"><path
             id="path86"
             style="fill:none;stroke:#2f528f;stroke-width:12700;stroke-linecap:butt;stroke-linejoin:miter;stroke-miterlimit:8;stroke-dasharray:none;stroke-opacity:1"
             d="M 0,367882.5 183941.7,0 H 649341.2 L 833282,367882.5 649341.2,735765 H 183941.7 Z" /></g><g
           transform="matrix(0.24,0,0,0.24,208.8978,-431.28)"
           id="g88"><text
             id="text92"
             style="font-variant:normal;font-weight:bold;font-size:37.5px;font-family:Calibri;-inkscape-font-specification:Calibri-Bold;writing-mode:lr-tb;fill:#000000;fill-opacity:1;fill-rule:nonzero;stroke:none"
             transform="matrix(1,0,0,-1,0,2250)"><tspan
               id="tspan90"
               y="0"
               x="0 21.352501 46.8675 69.794998 93.247498">ROADM</tspan></text>
</g><g
           transform="matrix(7.874016e-5,0,0,-7.874016e-5,673.2235,137.9995)"
           id="g94"><path
             id="path96"
             style="fill:none;stroke:#2f528f;stroke-width:12700;stroke-linecap:butt;stroke-linejoin:miter;stroke-miterlimit:8;stroke-dasharray:none;stroke-opacity:1"
             d="M 0,367882.5 183941.7,0 H 649341.2 L 833282,367882.5 649341.2,735765 H 183941.7 Z" /></g><g
           transform="matrix(0.24,0,0,0.24,690.9048,-433.68)"
           id="g98"><text
             id="text102"
             style="font-variant:normal;font-weight:bold;font-size:37.5px;font-family:Calibri;-inkscape-font-specification:Calibri-Bold;writing-mode:lr-tb;fill:#000000;fill-opacity:1;fill-rule:nonzero;stroke:none"
             transform="matrix(1,0,0,-1,0,2250)"><tspan
               id="tspan100"
               y="0"
               x="0 21.352501 46.8675 69.794998 93.247498">ROADM</tspan></text>
</g><path
           id="path104"
           style="fill:#000000;fill-opacity:1;fill-rule:nonzero;stroke:none"
           d="m 256.8544,392.4084 416.3734,0.899 -0.003,1.3333 -416.3735,-0.899 0.003,-1.3333 z m -0.006,2.6666 416.3735,0.8991 -0.003,1.3333 -416.3735,-0.8991 z" /><path
           id="path106"
           style="fill:#000000;fill-opacity:1;fill-rule:nonzero;stroke:none"
           d="m 256.8407,113.4204 416.3943,-2.3881 -0.008,-1.3333 -416.3943,2.3881 z m -0.0153,-2.6666 416.3943,-2.3881 -0.008,-1.3333 -416.3944,2.3881 0.008,1.3333 z" /><path
           id="path108"
           style="fill:#000000;fill-opacity:1;fill-rule:nonzero;stroke:none"
           d="M 203.7209,365.4415 203.7,140.3878 l 1.3333,-1e-4 0.0209,225.0536 z m 2.6666,-3e-4 -0.0208,-225.0536 1.3333,-1e-4 0.0209,225.0536 z" /><path
           id="path110"
           style="fill:#000000;fill-opacity:1;fill-rule:nonzero;stroke:none"
           d="m 243.4788,367.1035 118.819,-79.5094 -0.7415,-1.1081 -118.819,79.5093 z m -1.483,-2.2163 118.819,-79.5094 -0.7415,-1.1081 -118.819,79.5094 z" /><path
           id="path112"
           style="fill:#000000;fill-opacity:1;fill-rule:nonzero;stroke:none"
           d="m 243.5324,138.7778 118.84,87.61 -0.7912,1.0732 -118.8399,-87.61 z m -1.5823,2.1465 118.8399,87.61 -0.7912,1.0732 -118.8399,-87.61 z" /><g
           transform="matrix(0,-7.874016e-5,-7.874016e-5,0,148.3102,441.3473)"
           id="g114"><path
             id="path116"
             style="fill:none;stroke:#ff0000;stroke-width:25400;stroke-linecap:butt;stroke-linejoin:miter;stroke-miterlimit:8;stroke-dasharray:none;stroke-opacity:1"
             d="M 0,73907.42 C 0,33089.48 33089.57,0 73907.62,0 H 369533.4 c 40818,0 73907.6,33089.48 73907.6,73907.42 V 1371984 c 0,40818 -33089.6,73907 -73907.6,73907 H 73907.62 C 33089.57,1445891 0,1412802 0,1371984 Z" /></g><g
           transform="matrix(0.24,0,0,0.24,43.3454,-112.32)"
           id="g118"><text
             id="text122"
             style="font-variant:normal;font-weight:normal;font-size:58.33332825px;font-family:Calibri;-inkscape-font-specification:Calibri;writing-mode:lr-tb;fill:#000000;fill-opacity:1;fill-rule:nonzero;stroke:none"
             transform="matrix(1,0,0,-1,0,2250)"><tspan
               id="tspan120"
               y="0"
               x="0 36.977497 56.338329 87.074165 117.57666 143.58749 172.74832 185.75082 222.72832 252.41415 282.09998 311.2608 340.94666 370.63248">Groove G30_131</tspan></text>
</g><g
           transform="matrix(0.24,0,0,0.24,63.2604,-129.36)"
           id="g124"><text
             id="text128"
             style="font-variant:normal;font-weight:normal;font-size:58.33332825px;font-family:Calibri;-inkscape-font-specification:Calibri;writing-mode:lr-tb;fill:#000000;fill-opacity:1;fill-rule:nonzero;stroke:none"
             transform="matrix(1,0,0,-1,0,2250)"><tspan
               id="tspan126"
               y="0"
               x="0 29.685831 59.371662 89.057495 103.63499 133.32083 146.32332 174.95915 211.41165">195.3 THz</tspan></text>
</g><path
           id="path130"
           style="fill:#000000;fill-opacity:1;fill-rule:nonzero;stroke:none"
           d="m 550.7238,287.9319 -152.8926,-10e-5 v -1.3333 l 152.8926,10e-5 z m 0,-2.6667 H 397.8312 v -1.3334 l 152.8926,10e-5 z" /><path
           id="path132"
           style="fill:#000000;fill-opacity:1;fill-rule:nonzero;stroke:none"
           d="m 738.8363,397.3074 h 20 v -290.275 h -19 v 1.3333 h 17.6667 v 287.6084 h -18.6667 z m 0,-2.6667 h 17.3333 V 109.6991 h -16.3333 v 1.3333 h 15 v 282.275 h -16 z" /><path
           id="path134"
           style="fill:#000000;fill-opacity:1;fill-rule:nonzero;stroke:none"
           d="m 726.3527,366.3403 10e-5,-228.3408 h -1.3333 l -10e-5,228.3408 z m -2.6666,0 V 137.9995 h -1.3333 l -10e-5,228.3408 z" /><path
           id="path136"
           style="fill:#ffffff;fill-opacity:1;fill-rule:nonzero;stroke:none"
           d="m 712.2133,354.2592 c 0,2.0368 1.6511,3.6879 3.6879,3.6879 h 14.751 c 2.0367,0 3.6879,-1.6511 3.6879,-3.6879 v -57.0248 c 0,-2.0368 -1.6512,-3.6879 -3.6879,-3.6879 h -14.751 c -2.0368,0 -3.6879,1.6511 -3.6879,3.6879 z" /><g
           transform="matrix(7.874016e-5,0,0,-7.874016e-5,712.2133,357.9471)"
           id="g138"><path
             id="path140"
             style="fill:none;stroke:#2f528f;stroke-width:12700;stroke-linecap:butt;stroke-linejoin:miter;stroke-miterlimit:8;stroke-dasharray:none;stroke-opacity:1"
             d="M 0,46836.25 C 0,20969.3 20969.34,0 46836.34,0 H 234173.7 c 25867,0 46836.3,20969.3 46836.3,46836.25 V 771051.7 c 0,25867 -20969.3,46836.3 -46836.3,46836.3 H 46836.34 C 20969.34,817888 0,796918.7 0,771051.7 Z" /></g><g
           transform="matrix(0,0.24,-0.24,0,1266.677,308.16)"
           id="g142"><text
             id="text146"
             style="font-variant:normal;font-weight:normal;font-size:45.83332825px;font-family:Calibri;-inkscape-font-specification:Calibri;writing-mode:lr-tb;fill:#000000;fill-opacity:1;fill-rule:nonzero;stroke:none"
             transform="matrix(1,0,0,-1,0,2250)"><tspan
               id="tspan144"
               y="0"
               x="0 24.479582 48.454998 72.430412 96.405823 106.81458 129.73582">Coupler</tspan></text>
</g><path
           id="path148"
           style="fill:#ffffff;fill-opacity:1;fill-rule:nonzero;stroke:none"
           d="m 751.6467,216.3061 -25.7939,-64.1666 -28.794,64.1666 z" /><g
           transform="matrix(-7.874016e-5,0,0,7.874016e-5,751.6467,152.1395)"
           id="g150"><path
             id="path152"
             style="fill:none;stroke:#2f528f;stroke-width:12700;stroke-linecap:butt;stroke-linejoin:miter;stroke-miterlimit:8;stroke-dasharray:none;stroke-opacity:1"
             d="M 0,814916 327582.3,0 693267,814916 Z" /></g><g
           transform="matrix(0,0.24,-0.24,0,1267.703,190.56)"
           id="g154"><text
             id="text158"
             style="font-variant:normal;font-weight:bold;font-size:37.5px;font-family:Calibri;-inkscape-font-specification:Calibri-Bold;writing-mode:lr-tb;fill:#000000;fill-opacity:1;fill-rule:nonzero;stroke:none"
             transform="matrix(1,0,0,-1,0,2250)"><tspan
               id="tspan156"
               y="0"
               x="0 18.22875 41.669998 58.848751">EDFA</tspan></text>
</g><g
           transform="matrix(7.874016e-5,0,0,-7.874016e-5,673.2235,424.2746)"
           id="g160"><path
             id="path162"
             style="fill:none;stroke:#2f528f;stroke-width:12700;stroke-linecap:butt;stroke-linejoin:miter;stroke-miterlimit:8;stroke-dasharray:none;stroke-opacity:1"
             d="M 0,367882.5 183941.7,0 H 649341.2 L 833282,367882.5 649341.2,735765 H 183941.7 Z" /></g><g
           transform="matrix(0.24,0,0,0.24,690.9048,-147.36)"
           id="g164"><text
             id="text168"
             style="font-variant:normal;font-weight:bold;font-size:37.5px;font-family:Calibri;-inkscape-font-specification:Calibri-Bold;writing-mode:lr-tb;fill:#000000;fill-opacity:1;fill-rule:nonzero;stroke:none"
             transform="matrix(1,0,0,-1,0,2250)"><tspan
               id="tspan166"
               y="0"
               x="0 21.352501 46.8675 69.794998 93.247498">ROADM</tspan></text>
</g><g
           transform="matrix(7.874016e-5,0,0,-7.874016e-5,536.2402,285.9319)"
           id="g170"><path
             id="path172"
             style="fill:none;stroke:#2f528f;stroke-width:12700;stroke-linecap:butt;stroke-linejoin:miter;stroke-miterlimit:8;stroke-dasharray:none;stroke-opacity:1"
             d="M 0,367882.5 183941.7,0 H 649341.2 L 833282,367882.5 649341.2,735765 H 183941.7 Z" /></g><g
           transform="matrix(0.24,0,0,0.24,553.9216,-285.6)"
           id="g174"><text
             id="text178"
             style="font-variant:normal;font-weight:bold;font-size:37.5px;font-family:Calibri;-inkscape-font-specification:Calibri-Bold;writing-mode:lr-tb;fill:#000000;fill-opacity:1;fill-rule:nonzero;stroke:none"
             transform="matrix(1,0,0,-1,0,2250)"><tspan
               id="tspan176"
               y="0"
               x="0 21.352501 46.8675 69.794998 93.247498">ROADM</tspan></text>
</g><g
           transform="matrix(7.874016e-5,0,0,-7.874016e-5,346.7021,285.9319)"
           id="g180"><path
             id="path182"
             style="fill:none;stroke:#2f528f;stroke-width:12700;stroke-linecap:butt;stroke-linejoin:miter;stroke-miterlimit:8;stroke-dasharray:none;stroke-opacity:1"
             d="M 0,367882.5 183941.7,0 H 649341.2 L 833282,367882.5 649341.2,735765 H 183941.7 Z" /></g><g
           transform="matrix(0.24,0,0,0.24,364.3834,-285.6)"
           id="g184"><text
             id="text188"
             style="font-variant:normal;font-weight:bold;font-size:37.5px;font-family:Calibri;-inkscape-font-specification:Calibri-Bold;writing-mode:lr-tb;fill:#000000;fill-opacity:1;fill-rule:nonzero;stroke:none"
             transform="matrix(1,0,0,-1,0,2250)"><tspan
               id="tspan186"
               y="0"
               x="0 21.352501 46.8675 69.794998 93.247498">ROADM</tspan></text>
</g><path
           id="path190"
           style="fill:#000000;fill-opacity:1;fill-rule:nonzero;stroke:none"
           d="m 588.7049,229.4865 100.3376,-89.9981 -0.8903,-0.9926 -100.3376,89.9981 z m -1.7806,-1.9851 100.3377,-89.9982 -0.8903,-0.9925 -100.3377,89.9981 z" /><path
           id="path192"
           style="fill:#000000;fill-opacity:1;fill-rule:nonzero;stroke:none"
           d="m 588.6202,284.3712 100.3376,80.4084 -0.8338,1.0405 -100.3376,-80.4084 z m -1.6676,2.0809 100.3376,80.4085 -0.8338,1.0404 -100.3376,-80.4084 z" /><path
           id="path194"
           style="fill:#000000;fill-opacity:1;fill-rule:nonzero;stroke:none"
           d="M 550.7238,229.9976 H 397.8312 v -1.3334 l 152.8926,1e-4 z m 0,-2.6666 -152.8926,-10e-5 v -1.3333 h 152.8926 z" /><path
           id="path196"
           style="fill:#4472c4;fill-opacity:1;fill-rule:nonzero;stroke:none"
           d="m 148.3125,424.139 52.4108,-0.4688 -0.004,-0.5 -52.4109,0.4688 0.005,0.5 z m 51.4354,2.2901 5.973,-3.0536 -6.0266,-2.9462 z" /><path
           id="path198"
           style="fill:#4472c4;fill-opacity:1;fill-rule:nonzero;stroke:none"
           d="M 346.7021,256.7147 H 91.13537 v 144.7162 h 0.5 V 256.9647 l -0.25,0.25 H 346.7021 Z m -258.31673,143.716 3,6 3,-6 z" /><g
           transform="matrix(0.24,0,0,0.24,154.9972,-106.56)"
           id="g200"><text
             id="text204"
             style="font-variant:normal;font-weight:normal;font-size:58.33332825px;font-family:Calibri;-inkscape-font-specification:Calibri;writing-mode:lr-tb;fill:#000000;fill-opacity:1;fill-rule:nonzero;stroke:none"
             transform="matrix(1,0,0,-1,0,2250)"><tspan
               id="tspan202"
               y="0"
               x="0 26.080832">Tx</tspan></text>
</g><g
           transform="matrix(0.24,0,0,0.24,102.6616,-150)"
           id="g206"><text
             id="text210"
             style="font-variant:normal;font-weight:normal;font-size:58.33332825px;font-family:Calibri;-inkscape-font-specification:Calibri;writing-mode:lr-tb;fill:#000000;fill-opacity:1;fill-rule:nonzero;stroke:none"
             transform="matrix(1,0,0,-1,0,2250)"><tspan
               id="tspan208"
               y="0"
               x="0 31.768332">Rx</tspan></text>
</g><path
           id="path212"
           style="fill:#ffffff;fill-opacity:1;fill-rule:nonzero;stroke:none"
           d="m 851.3609,312.6525 h 94.195 v -29.0812 h -94.195 z" /><g
           transform="matrix(7.874016e-5,0,0,-7.874016e-5,851.3609,312.6525)"
           id="g214"><path
             id="path216"
             style="fill:none;stroke:#2f528f;stroke-width:12700;stroke-linecap:butt;stroke-linejoin:miter;stroke-miterlimit:8;stroke-dasharray:none;stroke-opacity:1"
             d="M 0,0 H 1196276 V 369332 H 0 Z" /></g><g
           transform="matrix(0.24,0,0,0.24,871.6884,-238.08)"
           id="g218"><text
             id="text222"
             style="font-variant:normal;font-weight:normal;font-size:58.33332825px;font-family:Calibri;-inkscape-font-specification:Calibri;writing-mode:lr-tb;fill:#000000;fill-opacity:1;fill-rule:nonzero;stroke:none"
             transform="matrix(1,0,0,-1,0,2250)"><tspan
               id="tspan220"
               y="0"
               x="0 26.564999 40.121666 70.828331 99.726662 140.75833 167.90666 193.88832 223.07832">Sinewave </tspan></text>
</g><g
           transform="matrix(0.24,0,0,0.24,870.4783,-255.12)"
           id="g224"><text
             id="text228"
             style="font-variant:normal;font-weight:normal;font-size:58.33332825px;font-family:Calibri;-inkscape-font-specification:Calibri;writing-mode:lr-tb;fill:#000000;fill-opacity:1;fill-rule:nonzero;stroke:none"
             transform="matrix(1,0,0,-1,0,2250)"><tspan
               id="tspan226"
               y="0"
               x="0 27.124998 56.291664 87.033325 116.2 135.33333 162.92499 182.17499 212.91666">generator</tspan></text>
</g><g
           transform="matrix(-7.874016e-5,0,0,-7.874016e-5,851.361,298.112)"
           id="g230"><path
             id="path232"
             style="fill:none;stroke:#4472c4;stroke-width:6350;stroke-linecap:butt;stroke-linejoin:miter;stroke-miterlimit:8;stroke-dasharray:none;stroke-opacity:1"
             d="M 0,0 H 732922.5 V 532957 H 1465845" /></g><path
           id="path234"
           style="fill:#ffffff;fill-opacity:1;fill-rule:nonzero;stroke:none"
           d="m 713.8133,284.6592 c 0,2.0368 1.6511,3.6879 3.6879,3.6879 h 14.751 c 2.0367,0 3.6879,-1.6511 3.6879,-3.6879 v -57.0248 c 0,-2.0368 -1.6512,-3.6879 -3.6879,-3.6879 h -14.751 c -2.0368,0 -3.6879,1.6511 -3.6879,3.6879 z" /><g
           transform="matrix(7.874016e-5,0,0,-7.874016e-5,713.8133,288.3471)"
           id="g236"><path
             id="path238"
             style="fill:none;stroke:#2f528f;stroke-width:12700;stroke-linecap:butt;stroke-linejoin:miter;stroke-miterlimit:8;stroke-dasharray:none;stroke-opacity:1"
             d="M 0,46836.25 C 0,20969.3 20969.34,0 46836.34,0 H 234173.7 c 25867,0 46836.3,20969.3 46836.3,46836.25 V 771051.7 c 0,25867 -20969.3,46836.3 -46836.3,46836.3 H 46836.34 C 20969.34,817888 0,796918.7 0,771051.7 Z" /></g><g
           transform="matrix(0,0.24,-0.24,0,1268.277,234.72)"
           id="g240"><text
             id="text244"
             style="font-variant:normal;font-weight:normal;font-size:45.83332825px;font-family:Calibri;-inkscape-font-specification:Calibri;writing-mode:lr-tb;fill:#000000;fill-opacity:1;fill-rule:nonzero;stroke:none"
             transform="matrix(1,0,0,-1,0,2250)"><tspan
               id="tspan242"
               y="0"
               x="0 23.439165 47.382496 57.804996 69.281662 79.704163 118.77249 142.71582 166.65915">Pol. Mod.</tspan></text>
</g><g
           transform="matrix(7.874016e-5,0,0,-7.874016e-5,246.7139,386.9139)"
           id="g246"><path
             id="path248"
             style="fill:none;stroke:#ff0000;stroke-width:38100;stroke-linecap:butt;stroke-linejoin:miter;stroke-miterlimit:8;stroke-dasharray:152400, 114300;stroke-dashoffset:0;stroke-opacity:1"
             d="m 0,16087 1960776,9427 H 4015819 L 5410986,6660 c 287518,-1571 256095,-18854 329938,9427 73843,28281 95840,73844 113122,160256 17282,86412 -9427,155542 -9427,358218 0,202676 7856,584463 9427,857840 1571,273377 -9427,564037 0,782424 9427,218387 40850,384928 56561,527901 15711,142973 37707,224673 37707,329939 0,105266 23567,263950 -37707,301657 -61274,37707 -141402,53419 -329938,-75414 -188536,-128833 -576607,-498050 -801279,-697584 -224672,-199534 -413208,-373929 -546754,-499620 -133546,-125691 -196392,-142974 -254524,-254524 -58132,-111550 -67559,-298515 -94268,-414779 -26709,-116264 89554,-226243 -65988,-282804 -155542,-56561 -609600,-50276 -867266,-56561 -257666,-6285 -501192,6284 -678730,18853 -177538,12569 -279662,0 -386499,56561 -106837,56561 -212103,207390 -254523,282804 -42420,75414 -21210,122548 0,169683" /></g><g
           transform="matrix(7.874016e-5,0,0,-7.874016e-5,220.438,406.0806)"
           id="g250"><path
             id="path252"
             style="fill:none;stroke:#00b0f0;stroke-width:38100;stroke-linecap:butt;stroke-linejoin:miter;stroke-miterlimit:8;stroke-dasharray:152400, 114300;stroke-dashoffset:0;stroke-opacity:1"
             d="m 324278,14406 2083323,9427 h 2215299 c 582891,-3142 997671,-36135 1282046,-18853 284375,17282 314227,59703 424206,122548 109979,62845 190107,168112 235670,254524 45563,86412 26709,-50277 37707,263950 10998,314227 29852,1201918 28281,1621411 -1571,419493 -29852,672445 -37708,895546 -7856,223101 9428,334652 -9426,443060 -18853,108408 -32994,158684 -103695,207389 -70701,48705 -40850,72273 -320512,84842 -279662,12569 -1357459,-9427 -1357459,-9427 L 2501869,3860542 776764,3841689 c -397497,-6284 -531043,-15712 -659876,-18854 -128833,-3142 -120978,-1571 -113122,0" /></g><g
           transform="matrix(0,-7.874016e-5,-7.874016e-5,0,148.3858,187.0561)"
           id="g254"><path
             id="path256"
             style="fill:none;stroke:#00b0f0;stroke-width:25400;stroke-linecap:butt;stroke-linejoin:miter;stroke-miterlimit:8;stroke-dasharray:none;stroke-opacity:1"
             d="M 0,73907.42 C 0,33089.48 33089.57,0 73907.62,0 H 369533.4 c 40818,0 73907.6,33089.48 73907.6,73907.42 V 1371984 c 0,40818 -33089.6,73907 -73907.6,73907 H 73907.62 C 33089.57,1445891 0,1412802 0,1371984 Z" /></g><g
           transform="matrix(0.24,0,0,0.24,43.42099,-366.72)"
           id="g258"><text
             id="text262"
             style="font-variant:normal;font-weight:normal;font-size:58.33332825px;font-family:Calibri;-inkscape-font-specification:Calibri;writing-mode:lr-tb;fill:#000000;fill-opacity:1;fill-rule:nonzero;stroke:none"
             transform="matrix(1,0,0,-1,0,2250)"><tspan
               id="tspan260"
               y="0"
               x="0 36.977497 56.338329 87.074165 117.57666 143.58749 172.74832">Groove </tspan></text>
</g><g
           transform="matrix(0.24,0,0,0.24,88.00098,-366.72)"
           id="g264"><text
             id="text268"
             style="font-variant:normal;font-weight:normal;font-size:58.33332825px;font-family:Calibri;-inkscape-font-specification:Calibri;writing-mode:lr-tb;fill:#000000;fill-opacity:1;fill-rule:nonzero;stroke:none"
             transform="matrix(1,0,0,-1,0,2250)"><tspan
               id="tspan266"
               y="0"
               x="0 36.977497 66.66333 96.349159 125.50999 155.19583 184.88165">G30_132</tspan></text>
</g><g
           transform="matrix(0.24,0,0,0.24,63.33598,-383.52)"
           id="g270"><text
             id="text274"
             style="font-variant:normal;font-weight:normal;font-size:58.33332825px;font-family:Calibri;-inkscape-font-specification:Calibri;writing-mode:lr-tb;fill:#000000;fill-opacity:1;fill-rule:nonzero;stroke:none"
             transform="matrix(1,0,0,-1,0,2250)"><tspan
               id="tspan272"
               y="0"
               x="0 29.685831 59.371662 89.057495 103.63499 133.32083 146.32332 174.95915 211.41165">195.2 THz</tspan></text>
</g><g
           transform="matrix(0.24,0,0,0.24,155.0728,-360.96)"
           id="g276"><text
             id="text280"
             style="font-variant:normal;font-weight:normal;font-size:58.33332825px;font-family:Calibri;-inkscape-font-specification:Calibri;writing-mode:lr-tb;fill:#000000;fill-opacity:1;fill-rule:nonzero;stroke:none"
             transform="matrix(1,0,0,-1,0,2250)"><tspan
               id="tspan278"
               y="0"
               x="0 26.080832">Tx</tspan></text>
</g><g
           transform="matrix(0.24,0,0,0.24,102.7372,-404.4)"
           id="g282"><text
             id="text286"
             style="font-variant:normal;font-weight:normal;font-size:58.33332825px;font-family:Calibri;-inkscape-font-specification:Calibri;writing-mode:lr-tb;fill:#000000;fill-opacity:1;fill-rule:nonzero;stroke:none"
             transform="matrix(1,0,0,-1,0,2250)"><tspan
               id="tspan284"
               y="0"
               x="0 31.768332">Rx</tspan></text>
</g><path
           id="path288"
           style="fill:#4472c4;fill-opacity:1;fill-rule:nonzero;stroke:none"
           d="m 148.3858,169.3477 h 21.6759 v 225.0606 l -0.25,-0.25 h 16.4256 v 0.5 H 169.5617 V 169.5977 l 0.25,0.25 h -21.4259 z m 36.8515,222.0606 6,3 -6,3 z" /><path
           id="path290"
           style="fill:#4472c4;fill-opacity:1;fill-rule:nonzero;stroke:none"
           d="M 191.2165,111.1704 H 91.21101 v 35.969 h 0.5 v -35.719 l -0.25,0.25 h 99.75549 z m -102.75549,34.969 3,6 3,-6 z" /><path
           id="path292"
           style="fill:#ffffff;fill-opacity:1;fill-rule:nonzero;stroke:none"
           d="m 856.7861,224.7263 h 94.195 v -29.0812 h -94.195 z" /><g
           transform="matrix(7.874016e-5,0,0,-7.874016e-5,856.7861,224.7263)"
           id="g294"><path
             id="path296"
             style="fill:none;stroke:#2f528f;stroke-width:12700;stroke-linecap:butt;stroke-linejoin:miter;stroke-miterlimit:8;stroke-dasharray:none;stroke-opacity:1"
             d="M 0,0 H 1196276 V 369332 H 0 Z" /></g><g
           transform="matrix(0.24,0,0,0.24,892.0611,-334.32)"
           id="g298"><text
             id="text302"
             style="font-variant:normal;font-weight:normal;font-size:58.33332825px;font-family:Calibri;-inkscape-font-specification:Calibri;writing-mode:lr-tb;fill:#000000;fill-opacity:1;fill-rule:nonzero;stroke:none"
             transform="matrix(1,0,0,-1,0,2250)"><tspan
               id="tspan300"
               y="0"
               x="0 38.540833 64.656662">OSA</tspan></text>
</g><path
           id="path304"
           style="fill:#4472c4;fill-opacity:1;fill-rule:nonzero;stroke:none"
           d="m 751.8966,216.3061 v 17.9999 l -0.25,-0.25 h 52.5689 l -0.25,0.25 v -56.9109 h 100.1681 v 13.2499 h -0.5 v -12.9999 l 0.25,0.25 h -99.6681 l 0.25,-0.25 v 56.9109 h -53.0689 v -18.2499 z m 154.987,-26.6611 -3,6 -3,-6 z" /><g
           transform="matrix(0.24,0,0,0.24,805.8282,-312.96)"
           id="g306"><text
             id="text310"
             style="font-variant:normal;font-weight:normal;font-size:50px;font-family:Calibri;-inkscape-font-specification:Calibri;writing-mode:lr-tb;fill:#000000;fill-opacity:1;fill-rule:nonzero;stroke:none"
             transform="matrix(1,0,0,-1,0,2250)"><tspan
               id="tspan308"
               y="0"
               x="0 24.48 55.209999 75.290001 104.47 115.95 127.43 153.46001 179.49001 205.52">EDFA input</tspan></text>
</g><g
           transform="matrix(0.24,0,0,0.24,805.8282,-328.08)"
           id="g312"><text
             id="text316"
             style="font-variant:normal;font-weight:normal;font-size:50px;font-family:Calibri;-inkscape-font-specification:Calibri;writing-mode:lr-tb;fill:#000000;fill-opacity:1;fill-rule:nonzero;stroke:none"
             transform="matrix(1,0,0,-1,0,2250)"><tspan
               id="tspan314"
               y="0"
               x="0 40.105 66.660004 92.714996 104.17 120.375 146.92999">monitor</tspan></text>
</g><g
           transform="matrix(0,-7.874016e-5,-7.874016e-5,0,147.7972,87.31756)"
           id="g318"><path
             id="path320"
             style="fill:none;stroke:#7030a0;stroke-width:25400;stroke-linecap:butt;stroke-linejoin:miter;stroke-miterlimit:8;stroke-dasharray:none;stroke-opacity:1"
             d="M 0,73907.42 C 0,33089.48 33089.57,0 73907.62,0 H 369533.4 c 40818,0 73907.6,33089.48 73907.6,73907.42 V 1371984 c 0,40818 -33089.6,73907 -73907.6,73907 H 73907.62 C 33089.57,1445891 0,1412802 0,1371984 Z" /></g><g
           transform="matrix(0.24,0,0,0.24,62.39728,-466.32)"
           id="g322"><text
             id="text326"
             style="font-variant:normal;font-weight:normal;font-size:58.33332825px;font-family:Calibri;-inkscape-font-specification:Calibri;writing-mode:lr-tb;fill:#000000;fill-opacity:1;fill-rule:nonzero;stroke:none"
             transform="matrix(1,0,0,-1,0,2250)"><tspan
               id="tspan324"
               y="0"
               x="0 38.540833 68.739998 118.71416 131.76332 162.48749 190.06166 209.11916 237.21832">OPM data </tspan></text>
</g><g
           transform="matrix(0.24,0,0,0.24,63.24228,-483.36)"
           id="g328"><text
             id="text332"
             style="font-variant:normal;font-weight:normal;font-size:58.33332825px;font-family:Calibri;-inkscape-font-specification:Calibri;writing-mode:lr-tb;fill:#000000;fill-opacity:1;fill-rule:nonzero;stroke:none"
             transform="matrix(1,0,0,-1,0,2250)"><tspan
               id="tspan330"
               y="0"
               x="0 23.998331 54.704998 68.261665 81.818329 111.00832 135.47333 155.27165 168.82832 199.53499">collection</tspan></text>
</g><path
           id="path334"
           style="fill:#000000;fill-opacity:1;fill-rule:nonzero;stroke:none"
           d="m 29.46055,424.139 h -2 v -0.1667 h 2 z m 0,-0.3334 h -2 v -0.1666 h 2 z m -3.5,0.3334 h -2 v -0.1667 h 2 z m 0,-0.3334 h -2 v -0.1666 h 2 z m -3.5,0.3334 h -2 v -0.1667 h 2 z m 0,-0.3334 h -2 v -0.1666 h 2 z m -3.5,0.3334 h -2.02811 v -0.4719 h 0.16667 v 0.3052 h 1.86144 z m 0,-0.3334 h -1.69478 v -0.1385 l 0.16667,-0.0281 v 0 h 1.52811 z m -2.02811,-1.6385 v -2 h 0.16667 v 2 z m 0.33333,0 v -2 h 0.16667 v 2 z m -0.33333,-3.5 v -2 h 0.16667 v 2 z m 0.33333,0 v -2 h 0.16667 v 2 z m -0.33333,-3.5 v -2 h 0.16667 v 2 z m 0.33333,0 v -2 h 0.16667 v 2 z m -0.33333,-3.5 v -2 h 0.16667 v 2 z m 0.33333,0 v -2 h 0.16667 v 2 z m -0.33333,-3.5 v -2 h 0.16667 v 2 z m 0.33333,0 v -2 h 0.16667 v 2 z m -0.33333,-3.5 v -2 h 0.16667 v 2 z m 0.33333,0 v -2 h 0.16667 v 2 z m -0.33333,-3.5 v -2 h 0.16667 v 2 z m 0.33333,0 v -2 h 0.16667 v 2 z m -0.33333,-3.5 v -2 h 0.16667 v 2 z m 0.33333,0 v -2 h 0.16667 v 2 z m -0.33333,-3.5 v -2 h 0.16667 v 2 z m 0.33333,0 v -2 h 0.16667 v 2 z m -0.33333,-3.5 v -2 h 0.16667 v 2 z m 0.33333,0 v -2 h 0.16667 v 2 z m -0.33333,-3.5 v -2 h 0.16667 v 2 z m 0.33333,0 v -2 h 0.16667 v 2 z m -0.33333,-3.5 v -2 h 0.16667 v 2 z m 0.33333,0 v -2 h 0.16667 v 2 z m -0.33333,-3.5 v -2 h 0.16667 v 2 z m 0.33333,0 v -2 h 0.16667 v 2 z m -0.33333,-3.5 v -2 h 0.16667 v 2 z m 0.33333,0 v -2 h 0.16667 v 2 z m -0.33333,-3.5 v -2 h 0.16667 v 2 z m 0.33333,0 v -2 h 0.16667 v 2 z m -0.33333,-3.5 v -2 h 0.16667 v 2 z m 0.33333,0 v -2 h 0.16667 v 2 z m -0.33333,-3.5 v -2 h 0.16667 v 2 z m 0.33333,0 v -2 h 0.16667 v 2 z m -0.33333,-3.5 v -2 h 0.16667 v 2 z m 0.33333,0 v -2 h 0.16667 v 2 z m -0.33333,-3.5 v -2 h 0.16667 v 2 z m 0.33333,0 v -2 h 0.16667 v 2 z m -0.33333,-3.5 v -2 h 0.16667 v 2 z m 0.33333,0 v -2 h 0.16667 v 2 z m -0.33333,-3.5 v -2 h 0.16667 v 2 z m 0.33333,0 v -2 h 0.16667 v 2 z m -0.33333,-3.5 v -2 h 0.16667 v 2 z m 0.33333,0 v -2 h 0.16667 v 2 z m -0.33333,-3.5 v -2 h 0.16667 v 2 z m 0.33333,0 v -2 h 0.16667 v 2 z m -0.33333,-3.5 v -2 h 0.16667 v 2 z m 0.33333,0 v -2 h 0.16667 v 2 z m -0.33333,-3.5 v -2 h 0.16667 v 2 z m 0.33333,0 v -2 h 0.16667 v 2 z m -0.33333,-3.5 v -2 h 0.16667 v 2 z m 0.33333,0 v -2 h 0.16667 v 2 z m -0.33333,-3.5 v -2 h 0.16667 v 2 z m 0.33333,0 v -2 h 0.16667 v 2 z m -0.33333,-3.5 v -2 h 0.16667 v 2 z m 0.33333,0 v -2 h 0.16667 v 2 z m -0.33333,-3.5 v -2 h 0.16667 v 2 z m 0.33333,0 v -2 h 0.16667 v 2 z m -0.33333,-3.5 v -2 h 0.16667 v 2 z m 0.33333,0 v -2 h 0.16667 v 2 z m -0.33333,-3.5 v -2 h 0.16667 v 2 z m 0.33333,0 v -2 h 0.16667 v 2 z m -0.33333,-3.5 v -2 h 0.16667 v 2 z m 0.33333,0 v -2 h 0.16667 v 2 z m -0.33333,-3.5 v -2 h 0.16667 v 2 z m 0.33333,0 v -2 h 0.16667 v 2 z m -0.33333,-3.5 v -2 h 0.16667 v 2 z m 0.33333,0 v -2 h 0.16667 v 2 z m -0.33333,-3.5 v -2 h 0.16667 v 2 z m 0.33333,0 v -2 h 0.16667 v 2 z m -0.33333,-3.5 v -2 h 0.16667 v 2 z m 0.33333,0 v -2 h 0.16667 v 2 z m -0.33333,-3.5 v -2 h 0.16667 v 2 z m 0.33333,0 v -2 h 0.16667 v 2 z m -0.33333,-3.5 v -2 h 0.16667 v 2 z m 0.33333,0 v -2 h 0.16667 v 2 z m -0.33333,-3.5 v -2 h 0.16667 v 2 z m 0.33333,0 v -2 h 0.16667 v 2 z m -0.33333,-3.5 v -2 h 0.16667 v 2 z m 0.33333,0 v -2 h 0.16667 v 2 z m -0.33333,-3.5 v -2 h 0.16667 v 2 z m 0.33333,0 v -2 h 0.16667 v 2 z m -0.33333,-3.5 v -2 h 0.16667 v 2 z m 0.33333,0 v -2 h 0.16667 v 2 z m -0.33333,-3.5 v -2 h 0.16667 v 2 z m 0.33333,0 v -2 h 0.16667 v 2 z m -0.33333,-3.5 v -2 h 0.16667 v 2 z m 0.33333,0 v -2 h 0.16667 v 2 z m -0.33333,-3.5 v -2 h 0.16667 v 2 z m 0.33333,0 v -2 h 0.16667 v 2 z m -0.33333,-3.5 v -2 h 0.16667 v 2 z m 0.33333,0 v -2 h 0.16667 v 2 z m -0.33333,-3.5 v -2 h 0.16667 v 2 z m 0.33333,0 v -2 h 0.16667 v 2 z m -0.33333,-3.5 v -2 h 0.16667 v 2 z m 0.33333,0 v -2 h 0.16667 v 2 z m -0.33333,-3.5 v -2 h 0.16667 v 2 z m 0.33333,0 v -2 h 0.16667 v 2 z m -0.33333,-3.5 v -2 h 0.16667 v 2 z m 0.33333,0 v -2 h 0.16667 v 2 z m -0.33333,-3.5 v -2 h 0.16667 v 2 z m 0.33333,0 v -2 h 0.16667 v 2 z m -0.33333,-3.5 v -2 h 0.16667 v 2 z m 0.33333,0 v -2 h 0.16667 v 2 z m -0.33333,-3.5 v -2 h 0.16667 v 2 z m 0.33333,0 v -2 h 0.16667 v 2 z m -0.33333,-3.5 v -2 h 0.16667 v 2 z m 0.33333,0 v -2 h 0.16667 v 2 z m -0.33333,-3.5 v -2 h 0.16667 v 2 z m 0.33333,0 v -2 h 0.16667 v 2 z m -0.33333,-3.5 v -2 h 0.16667 v 2 z m 0.33333,0 v -2 h 0.16667 v 2 z m -0.33333,-3.5 v -2 h 0.16667 v 2 z m 0.33333,0 v -2 h 0.16667 v 2 z m -0.33333,-3.5 v -2 h 0.16667 v 2 z m 0.33333,0 v -2 h 0.16667 v 2 z m -0.33333,-3.5 v -2 h 0.16667 v 2 z m 0.33333,0 v -2 h 0.16667 v 2 z m -0.33333,-3.5 v -2 h 0.16667 v 2 z m 0.33333,0 v -2 h 0.16667 v 2 z m -0.33333,-3.5 v -2 h 0.16667 v 2 z m 0.33333,0 v -2 h 0.16667 v 2 z m -0.33333,-3.5 v -2 h 0.16667 v 2 z m 0.33333,0 v -2 h 0.16667 v 2 z m -0.33333,-3.5 v -2 h 0.16667 v 2 z m 0.33333,0 v -2 h 0.16667 v 2 z m -0.33333,-3.5 v -2 h 0.16667 v 2 z m 0.33333,0 v -2 h 0.16667 v 2 z m -0.33333,-3.5 v -2 h 0.16667 v 2 z m 0.33333,0 v -2 h 0.16667 v 2 z m -0.33333,-3.5 v -2 h 0.16667 v 2 z m 0.33333,0 v -2 h 0.16667 v 2 z m -0.33333,-3.5 v -2 h 0.16667 v 2 z m 0.33333,0 v -2 h 0.16667 v 2 z m -0.33333,-3.5 v -2 h 0.16667 v 2 z m 0.33333,0 v -2 h 0.16667 v 2 z m -0.33333,-3.5 v -2 h 0.16667 v 2 z m 0.33333,0 v -2 h 0.16667 v 2 z m -0.33333,-3.5 v -2 h 0.16667 v 2 z m 0.33333,0 v -2 h 0.16667 v 2 z m -0.33333,-3.5 v -2 h 0.16667 v 2 z m 0.33333,0 v -2 h 0.16667 v 2 z m -0.33333,-3.5 v -2 h 0.16667 v 2 z m 0.33333,0 v -2 h 0.16667 v 2 z m -0.33333,-3.5 v -2 h 0.16667 v 2 z m 0.33333,0 v -2 h 0.16667 v 2 z m -0.33333,-3.5 v -2 h 0.16667 v 2 z m 0.33333,0 v -2 h 0.16667 v 2 z m -0.33333,-3.5 v -2 h 0.16667 v 2 z m 0.33333,0 v -2 h 0.16667 v 2 z m -0.33333,-3.5 v -2 h 0.16667 v 2 z m 0.33333,0 v -2 h 0.16667 v 2 z m -0.33333,-3.5 v -2 h 0.16667 v 2 z m 0.33333,0 v -2 h 0.16667 v 2 z m -0.33333,-3.5 v -2 h 0.16667 v 2 z m 0.33333,0 v -2 h 0.16667 v 2 z m -0.33333,-3.5 v -2 h 0.16667 v 2 z m 0.33333,0 v -2 h 0.16667 v 2 z m -0.33333,-3.5 v -2 h 0.16667 v 2 z m 0.33333,0 v -2 h 0.16667 v 2 z m -0.33333,-3.5 v -2 h 0.16667 v 2 z m 0.33333,0 v -2 h 0.16667 v 2 z m -0.33333,-3.5 v -2 h 0.16667 v 2 z m 0.33333,0 v -2 h 0.16667 v 2 z m -0.33333,-3.5 v -2 h 0.16667 v 2 z m 0.33333,0 v -2 h 0.16667 v 2 z m -0.33333,-3.5 v -2 h 0.16667 v 2 z m 0.33333,0 v -2 h 0.16667 v 2 z m -0.33333,-3.5 v -2 h 0.16667 v 2 z m 0.33333,0 v -2 h 0.16667 v 2 z m -0.33333,-3.5 v -2 h 0.16667 v 2 z m 0.33333,0 v -2 h 0.16667 v 2 z m -0.33333,-3.5 v -2 h 0.16667 v 2 z m 0.33333,0 v -2 h 0.16667 v 2 z m -0.33333,-3.5 v -2 h 0.16667 v 2 z m 0.33333,0 v -2 h 0.16667 v 2 z m -0.33333,-3.5 v -2 h 0.16667 v 2 z m 0.33333,0 v -2 h 0.16667 v 2 z m -0.33333,-3.5 v -2 h 0.16667 v 2 z m 0.33333,0 v -2 h 0.16667 v 2 z m -0.33333,-3.5 v -2 h 0.16667 v 2 z m 0.33333,0 v -2 h 0.16667 v 2 z m -0.33333,-3.5 v -2 h 0.16667 v 2 z m 0.33333,0 v -2 h 0.16667 v 2 z m -0.33333,-3.5 v -2 h 0.16667 v 2 z m 0.33333,0 v -2 h 0.16667 v 2 z m -0.33333,-3.5 v -2 h 0.16667 v 2 z m 0.33333,0 v -2 h 0.16667 v 2 z m -0.33333,-3.5 v -2 h 0.16667 v 2 z m 0.33333,0 v -2 h 0.16667 v 2 z m -0.33333,-3.5 v -2 h 0.16667 v 2 z m 0.33333,0 v -2 h 0.16667 v 2 z m -0.33333,-3.5 v -2 h 0.16667 v 2 z m 0.33333,0 v -2 h 0.16667 v 2 z m -0.33333,-3.5 v -2 h 0.16667 v 2 z m 0.33333,0 v -2 h 0.16667 v 2 z m -0.33333,-3.5 v -2 h 0.16667 v 2 z m 0.33333,0 v -2 h 0.16667 v 2 z m -0.33333,-3.5 v -2 h 0.16667 v 2 z m 0.33333,0 v -2 h 0.16667 v 2 z m -0.33333,-3.5 v -2 h 0.16667 v 2 z m 0.33333,0 v -2 h 0.16667 v 2 z m 1.1088,-2.55787 h 2 v 0.16665 h -2 z m 0,0.33334 h 2 v 0.16666 h -2 z m 3.5,-0.33334 h 2 v 0.16665 h -2 z m 0,0.33334 h 2 v 0.16666 h -2 z m 3.5,-0.33334 h 2 v 0.16665 h -2 z m 0,0.33334 h 2 v 0.16666 h -2 z m 3.5,-0.33334 h 0.07291 v 0.16665 h -0.07291 z m 0,0.33334 h 0.07291 v 0.16666 h -0.07291 z m -0.41402,350.94643 6,3 -6,3 z m -0.51307,-354.02977 6,3 -6,3 z" /><path
           id="path336"
           style="fill:#000000;fill-opacity:1;fill-rule:nonzero;stroke:none"
           d="m 28.94748,70.10914 h -2 v -0.16667 h 2 z m 0,-0.33333 h -2 v -0.16667 h 2 z m -3.5,0.33333 H 24.9974 v 1.04992 h -0.16667 v -1.21659 h 0.61675 z m 0,-0.33333 h -0.78341 v 1.38325 H 24.4974 v -1.54992 h 0.95008 z m -0.45008,2.88325 v 2 h -0.16667 v -2 z m -0.33333,0 v 2 H 24.4974 v -2 z m 0.33333,3.5 v 2 h -0.16667 v -2 z m -0.33333,0 v 2 H 24.4974 v -2 z m 0.33333,3.5 v 2 h -0.16667 v -2 z m -0.33333,0 v 2 H 24.4974 v -2 z m 0.33333,3.5 v 2 h -0.16667 v -2 z m -0.33333,0 v 2 H 24.4974 v -2 z m 0.33333,3.5 v 2 h -0.16667 v -2 z m -0.33333,0 v 2 H 24.4974 v -2 z m 0.33333,3.5 v 2 h -0.16667 v -2 z m -0.33333,0 v 2 H 24.4974 v -2 z m 0.33333,3.5 v 2 h -0.16667 v -2 z m -0.33333,0 v 2 H 24.4974 v -2 z m 0.33333,3.5 v 2 h -0.16667 v -2 z m -0.33333,0 v 2 H 24.4974 v -2 z m 0.33333,3.50004 v 2 h -0.16667 v -2 z m -0.33333,0 v 2 H 24.4974 v -2 z m 0.33333,3.5 v 2 h -0.16667 v -2 z m -0.33333,0 v 2 H 24.4974 v -2 z m 0.33333,3.5 v 2 h -0.16667 v -2 z m -0.33333,0 v 2 H 24.4974 v -2 z m 0.33333,3.5 v 2 h -0.16667 v -2 z m -0.33333,0 v 2 H 24.4974 v -2 z m 0.33333,3.5 v 2 h -0.16667 v -2 z m -0.33333,0 v 2 H 24.4974 v -2 z m 0.33333,3.5 v 2 h -0.16667 v -2 z m -0.33333,0 v 2 H 24.4974 v -2 z m 0.33333,3.5 v 2 h -0.16667 v -2 z m -0.33333,0 v 2 H 24.4974 v -2 z m 0.33333,3.5 v 2 h -0.16667 v -2 z m -0.33333,0 v 2 H 24.4974 v -2 z m 0.33333,3.5 v 2 h -0.16667 v -2 z m -0.33333,0 v 2 H 24.4974 v -2 z m 0.33333,3.5 v 2 h -0.16667 v -2 z m -0.33333,0 v 2 H 24.4974 v -2 z m 0.33333,3.5 v 2 h -0.16667 v -2 z m -0.33333,0 v 2 H 24.4974 v -2 z m 0.33333,3.5 v 2 h -0.16667 v -2 z m -0.33333,0 v 2 H 24.4974 v -2 z m 0.33333,3.5 v 2 h -0.16667 v -2 z m -0.33333,0 v 2 H 24.4974 v -2 z m 0.33333,3.5 v 2 h -0.16667 v -2 z m -0.33333,0 v 2 H 24.4974 v -2 z m 0.33333,3.5 v 2 h -0.16667 v -2 z m -0.33333,0 v 2 H 24.4974 v -2 z m 0.33333,3.5 v 2 h -0.16667 v -2 z m -0.33333,0 v 2 H 24.4974 v -2 z m 0.33333,3.5 v 2 h -0.16667 v -2 z m -0.33333,0 v 2 H 24.4974 v -2 z m 0.33333,3.5 v 2 h -0.16667 v -2 z m -0.33333,0 v 2 H 24.4974 v -2 z m 0.33333,3.5 v 2 h -0.16667 v -2 z m -0.33333,0 v 2 H 24.4974 v -2 z m 0.33333,3.5 v 2 h -0.16667 v -2 z m -0.33333,0 v 2 H 24.4974 v -2 z m 1.14475,2.1885 h 2 v 0.1667 h -2 z m 0,0.3334 h 2 v 0.1666 h -2 z m 3.5,-0.3334 h 0.22732 v 0.1667 h -0.22732 z m 0,0.3334 h 0.22732 v 0.1666 h -0.22732 z m -1.36134,-102.82186 6,3 -6,3 z m 0.58866,99.73846 6,3 -6,3 z" /><g
           transform="matrix(0,0.24,-0.24,0,578.3925,91.92001)"
           id="g338"><text
             id="text342"
             style="font-variant:normal;font-weight:normal;font-size:58.33332825px;font-family:Calibri;-inkscape-font-specification:Calibri;writing-mode:lr-tb;fill:#000000;fill-opacity:1;fill-rule:nonzero;stroke:none"
             transform="matrix(1,0,0,-1,0,2250)"><tspan
               id="tspan340"
               y="0"
               x="0 37.502499 66.138329 93.607498 124.34332 162.89583 200.39832">NETCONF</tspan></text>
</g></g></g></g></svg>