<?xml version="1.0" encoding="utf-8" standalone="no"?>
<!DOCTYPE svg PUBLIC "-//W3C//DTD SVG 1.1//EN"
  "http://www.w3.org/Graphics/SVG/1.1/DTD/svg11.dtd">
<!-- Created with matplotlib (https://matplotlib.org/) -->
<svg height="288pt" version="1.1" viewBox="0 0 432 288" width="432pt" xmlns="http://www.w3.org/2000/svg" xmlns:xlink="http://www.w3.org/1999/xlink">
 <defs>
  <style type="text/css">
*{stroke-linecap:butt;stroke-linejoin:round;}
  </style>
 </defs>
 <g id="figure_1">
  <g id="patch_1">
   <path d="M 0 288 
L 432 288 
L 432 0 
L 0 0 
z
" style="fill:#ffffff;"/>
  </g>
  <g id="axes_1">
   <g id="patch_2">
    <path d="M 55.71 238.04 
L 415.54 238.04 
L 415.54 16.46 
L 55.71 16.46 
z
" style="fill:#ffffff;"/>
   </g>
   <g id="PathCollection_1">
    <defs>
     <path d="M 0 4.472136 
C 1.186024 4.472136 2.323632 4.000923 3.162278 3.162278 
C 4.000923 2.323632 4.472136 1.186024 4.472136 0 
C 4.472136 -1.186024 4.000923 -2.323632 3.162278 -3.162278 
C 2.323632 -4.000923 1.186024 -4.472136 0 -4.472136 
C -1.186024 -4.472136 -2.323632 -4.000923 -3.162278 -3.162278 
C -4.000923 -2.323632 -4.472136 -1.186024 -4.472136 0 
C -4.472136 1.186024 -4.000923 2.323632 -3.162278 3.162278 
C -2.323632 4.000923 -1.186024 4.472136 0 4.472136 
z
" id="m28dec621f7" style="stroke:#ffffff;stroke-opacity:0.4;"/>
    </defs>
    <g clip-path="url(#p7c7b7c5bb2)">
     <use style="fill:#ff7f0e;fill-opacity:0.4;stroke:#ffffff;stroke-opacity:0.4;" x="85.695833" xlink:href="#m28dec621f7" y="-1"/>
     <use style="fill:#ff7f0e;fill-opacity:0.4;stroke:#ffffff;stroke-opacity:0.4;" x="85.695833" xlink:href="#m28dec621f7" y="19.768928"/>
     <use style="fill:#ff7f0e;fill-opacity:0.4;stroke:#ffffff;stroke-opacity:0.4;" x="85.695833" xlink:href="#m28dec621f7" y="11.995573"/>
     <use style="fill:#ff7f0e;fill-opacity:0.4;stroke:#ffffff;stroke-opacity:0.4;" x="85.695833" xlink:href="#m28dec621f7" y="-1"/>
     <use style="fill:#ff7f0e;fill-opacity:0.4;stroke:#ffffff;stroke-opacity:0.4;" x="85.695833" xlink:href="#m28dec621f7" y="-1"/>
     <use style="fill:#ff7f0e;fill-opacity:0.4;stroke:#ffffff;stroke-opacity:0.4;" x="85.695833" xlink:href="#m28dec621f7" y="20.618318"/>
     <use style="fill:#ff7f0e;fill-opacity:0.4;stroke:#ffffff;stroke-opacity:0.4;" x="85.695833" xlink:href="#m28dec621f7" y="13.279917"/>
     <use style="fill:#ff7f0e;fill-opacity:0.4;stroke:#ffffff;stroke-opacity:0.4;" x="85.695833" xlink:href="#m28dec621f7" y="-1"/>
     <use style="fill:#ff7f0e;fill-opacity:0.4;stroke:#ffffff;stroke-opacity:0.4;" x="85.695833" xlink:href="#m28dec621f7" y="-1"/>
     <use style="fill:#ff7f0e;fill-opacity:0.4;stroke:#ffffff;stroke-opacity:0.4;" x="85.695833" xlink:href="#m28dec621f7" y="21.651537"/>
     <use style="fill:#ff7f0e;fill-opacity:0.4;stroke:#ffffff;stroke-opacity:0.4;" x="85.695833" xlink:href="#m28dec621f7" y="14.200705"/>
     <use style="fill:#ff7f0e;fill-opacity:0.4;stroke:#ffffff;stroke-opacity:0.4;" x="85.695833" xlink:href="#m28dec621f7" y="-1"/>
     <use style="fill:#ff7f0e;fill-opacity:0.4;stroke:#ffffff;stroke-opacity:0.4;" x="85.695833" xlink:href="#m28dec621f7" y="-1"/>
     <use style="fill:#ff7f0e;fill-opacity:0.4;stroke:#ffffff;stroke-opacity:0.4;" x="85.695833" xlink:href="#m28dec621f7" y="15.345535"/>
     <use style="fill:#ff7f0e;fill-opacity:0.4;stroke:#ffffff;stroke-opacity:0.4;" x="85.695833" xlink:href="#m28dec621f7" y="-1"/>
     <use style="fill:#ff7f0e;fill-opacity:0.4;stroke:#ffffff;stroke-opacity:0.4;" x="87.008005" xlink:href="#m28dec621f7" y="-1"/>
     <use style="fill:#ff7f0e;fill-opacity:0.4;stroke:#ffffff;stroke-opacity:0.4;" x="87.070584" xlink:href="#m28dec621f7" y="41.272036"/>
     <use style="fill:#ff7f0e;fill-opacity:0.4;stroke:#ffffff;stroke-opacity:0.4;" x="87.114382" xlink:href="#m28dec621f7" y="-1"/>
     <use style="fill:#ff7f0e;fill-opacity:0.4;stroke:#ffffff;stroke-opacity:0.4;" x="87.450033" xlink:href="#m28dec621f7" y="-1"/>
     <use style="fill:#ff7f0e;fill-opacity:0.4;stroke:#ffffff;stroke-opacity:0.4;" x="87.513774" xlink:href="#m28dec621f7" y="6.938625"/>
     <use style="fill:#ff7f0e;fill-opacity:0.4;stroke:#ffffff;stroke-opacity:0.4;" x="133.715946" xlink:href="#m28dec621f7" y="22.637979"/>
     <use style="fill:#ff7f0e;fill-opacity:0.4;stroke:#ffffff;stroke-opacity:0.4;" x="632.301592" xlink:href="#m28dec621f7" y="190.887776"/>
     <use style="fill:#ff7f0e;fill-opacity:0.4;stroke:#ffffff;stroke-opacity:0.4;" x="681.754228" xlink:href="#m28dec621f7" y="219.575"/>
     <use style="fill:#ff7f0e;fill-opacity:0.4;stroke:#ffffff;stroke-opacity:0.4;" x="685.4125" xlink:href="#m28dec621f7" y="219.575"/>
     <use style="fill:#ff7f0e;fill-opacity:0.4;stroke:#ffffff;stroke-opacity:0.4;" x="685.4125" xlink:href="#m28dec621f7" y="219.575"/>
     <use style="fill:#ff7f0e;fill-opacity:0.4;stroke:#ffffff;stroke-opacity:0.4;" x="685.4125" xlink:href="#m28dec621f7" y="219.575"/>
     <use style="fill:#ff7f0e;fill-opacity:0.4;stroke:#ffffff;stroke-opacity:0.4;" x="685.4125" xlink:href="#m28dec621f7" y="219.575"/>
     <use style="fill:#ff7f0e;fill-opacity:0.4;stroke:#ffffff;stroke-opacity:0.4;" x="685.4125" xlink:href="#m28dec621f7" y="219.575"/>
     <use style="fill:#ff7f0e;fill-opacity:0.4;stroke:#ffffff;stroke-opacity:0.4;" x="685.4125" xlink:href="#m28dec621f7" y="219.575"/>
     <use style="fill:#ff7f0e;fill-opacity:0.4;stroke:#ffffff;stroke-opacity:0.4;" x="685.4125" xlink:href="#m28dec621f7" y="219.575"/>
     <use style="fill:#ff7f0e;fill-opacity:0.4;stroke:#ffffff;stroke-opacity:0.4;" x="685.4125" xlink:href="#m28dec621f7" y="219.575"/>
     <use style="fill:#ff7f0e;fill-opacity:0.4;stroke:#ffffff;stroke-opacity:0.4;" x="685.4125" xlink:href="#m28dec621f7" y="219.575"/>
     <use style="fill:#ff7f0e;fill-opacity:0.4;stroke:#ffffff;stroke-opacity:0.4;" x="685.4125" xlink:href="#m28dec621f7" y="219.575"/>
     <use style="fill:#ff7f0e;fill-opacity:0.4;stroke:#ffffff;stroke-opacity:0.4;" x="685.4125" xlink:href="#m28dec621f7" y="219.575"/>
     <use style="fill:#ff7f0e;fill-opacity:0.4;stroke:#ffffff;stroke-opacity:0.4;" x="685.4125" xlink:href="#m28dec621f7" y="219.575"/>
     <use style="fill:#ff7f0e;fill-opacity:0.4;stroke:#ffffff;stroke-opacity:0.4;" x="685.4125" xlink:href="#m28dec621f7" y="219.575"/>
     <use style="fill:#ff7f0e;fill-opacity:0.4;stroke:#ffffff;stroke-opacity:0.4;" x="685.4125" xlink:href="#m28dec621f7" y="219.575"/>
     <use style="fill:#ff7f0e;fill-opacity:0.4;stroke:#ffffff;stroke-opacity:0.4;" x="685.4125" xlink:href="#m28dec621f7" y="219.575"/>
     <use style="fill:#ff7f0e;fill-opacity:0.4;stroke:#ffffff;stroke-opacity:0.4;" x="685.4125" xlink:href="#m28dec621f7" y="219.575"/>
     <use style="fill:#ff7f0e;fill-opacity:0.4;stroke:#ffffff;stroke-opacity:0.4;" x="685.4125" xlink:href="#m28dec621f7" y="219.575"/>
     <use style="fill:#ff7f0e;fill-opacity:0.4;stroke:#ffffff;stroke-opacity:0.4;" x="685.4125" xlink:href="#m28dec621f7" y="219.575"/>
    </g>
   </g>
   <g id="matplotlib.axis_1">
    <g id="xtick_1">
     <g id="line2d_1">
      <path clip-path="url(#p7c7b7c5bb2)" d="M 85.695833 238.04 
L 85.695833 16.46 
" style="fill:none;stroke:#b0b0b0;stroke-dasharray:0.8,1.32;stroke-dashoffset:0;stroke-width:0.8;"/>
     </g>
     <g id="line2d_2">
      <defs>
       <path d="M 0 0 
L 0 3.5 
" id="m2b9eb69b96" style="stroke:#000000;stroke-width:0.8;"/>
      </defs>
      <g>
       <use style="stroke:#000000;stroke-width:0.8;" x="85.695833" xlink:href="#m2b9eb69b96" y="238.04"/>
      </g>
     </g>
     <g id="text_1">
      <!-- 0.0 -->
      <defs>
       <path d="M 31.78125 66.40625 
Q 24.171875 66.40625 20.328125 58.90625 
Q 16.5 51.421875 16.5 36.375 
Q 16.5 21.390625 20.328125 13.890625 
Q 24.171875 6.390625 31.78125 6.390625 
Q 39.453125 6.390625 43.28125 13.890625 
Q 47.125 21.390625 47.125 36.375 
Q 47.125 51.421875 43.28125 58.90625 
Q 39.453125 66.40625 31.78125 66.40625 
z
M 31.78125 74.21875 
Q 44.046875 74.21875 50.515625 64.515625 
Q 56.984375 54.828125 56.984375 36.375 
Q 56.984375 17.96875 50.515625 8.265625 
Q 44.046875 -1.421875 31.78125 -1.421875 
Q 19.53125 -1.421875 13.0625 8.265625 
Q 6.59375 17.96875 6.59375 36.375 
Q 6.59375 54.828125 13.0625 64.515625 
Q 19.53125 74.21875 31.78125 74.21875 
z
" id="DejaVuSans-48"/>
       <path d="M 10.6875 12.40625 
L 21 12.40625 
L 21 0 
L 10.6875 0 
z
" id="DejaVuSans-46"/>
      </defs>
      <g transform="translate(76.153958 254.158125)scale(0.12 -0.12)">
       <use xlink:href="#DejaVuSans-48"/>
       <use x="63.623047" xlink:href="#DejaVuSans-46"/>
       <use x="95.410156" xlink:href="#DejaVuSans-48"/>
      </g>
     </g>
    </g>
    <g id="xtick_2">
     <g id="line2d_3">
      <path clip-path="url(#p7c7b7c5bb2)" d="M 385.554167 238.04 
L 385.554167 16.46 
" style="fill:none;stroke:#b0b0b0;stroke-dasharray:0.8,1.32;stroke-dashoffset:0;stroke-width:0.8;"/>
     </g>
     <g id="line2d_4">
      <g>
       <use style="stroke:#000000;stroke-width:0.8;" x="385.554167" xlink:href="#m2b9eb69b96" y="238.04"/>
      </g>
     </g>
     <g id="text_2">
      <!-- 0.5 -->
      <defs>
       <path d="M 10.796875 72.90625 
L 49.515625 72.90625 
L 49.515625 64.59375 
L 19.828125 64.59375 
L 19.828125 46.734375 
Q 21.96875 47.46875 24.109375 47.828125 
Q 26.265625 48.1875 28.421875 48.1875 
Q 40.625 48.1875 47.75 41.5 
Q 54.890625 34.8125 54.890625 23.390625 
Q 54.890625 11.625 47.5625 5.09375 
Q 40.234375 -1.421875 26.90625 -1.421875 
Q 22.3125 -1.421875 17.546875 -0.640625 
Q 12.796875 0.140625 7.71875 1.703125 
L 7.71875 11.625 
Q 12.109375 9.234375 16.796875 8.0625 
Q 21.484375 6.890625 26.703125 6.890625 
Q 35.15625 6.890625 40.078125 11.328125 
Q 45.015625 15.765625 45.015625 23.390625 
Q 45.015625 31 40.078125 35.4375 
Q 35.15625 39.890625 26.703125 39.890625 
Q 22.75 39.890625 18.8125 39.015625 
Q 14.890625 38.140625 10.796875 36.28125 
z
" id="DejaVuSans-53"/>
      </defs>
      <g transform="translate(376.012292 254.158125)scale(0.12 -0.12)">
       <use xlink:href="#DejaVuSans-48"/>
       <use x="63.623047" xlink:href="#DejaVuSans-46"/>
       <use x="95.410156" xlink:href="#DejaVuSans-53"/>
      </g>
     </g>
    </g>
    <g id="xtick_3">
     <g id="line2d_5">
      <path clip-path="url(#p7c7b7c5bb2)" d="M 115.681667 238.04 
L 115.681667 16.46 
" style="fill:none;stroke:#b0b0b0;stroke-dasharray:0.8,1.32;stroke-dashoffset:0;stroke-width:0.8;"/>
     </g>
     <g id="line2d_6">
      <defs>
       <path d="M 0 0 
L 0 2 
" id="mc67fd631da" style="stroke:#000000;stroke-width:0.6;"/>
      </defs>
      <g>
       <use style="stroke:#000000;stroke-width:0.6;" x="115.681667" xlink:href="#mc67fd631da" y="238.04"/>
      </g>
     </g>
    </g>
    <g id="xtick_4">
     <g id="line2d_7">
      <path clip-path="url(#p7c7b7c5bb2)" d="M 145.6675 238.04 
L 145.6675 16.46 
" style="fill:none;stroke:#b0b0b0;stroke-dasharray:0.8,1.32;stroke-dashoffset:0;stroke-width:0.8;"/>
     </g>
     <g id="line2d_8">
      <g>
       <use style="stroke:#000000;stroke-width:0.6;" x="145.6675" xlink:href="#mc67fd631da" y="238.04"/>
      </g>
     </g>
    </g>
    <g id="xtick_5">
     <g id="line2d_9">
      <path clip-path="url(#p7c7b7c5bb2)" d="M 175.653333 238.04 
L 175.653333 16.46 
" style="fill:none;stroke:#b0b0b0;stroke-dasharray:0.8,1.32;stroke-dashoffset:0;stroke-width:0.8;"/>
     </g>
     <g id="line2d_10">
      <g>
       <use style="stroke:#000000;stroke-width:0.6;" x="175.653333" xlink:href="#mc67fd631da" y="238.04"/>
      </g>
     </g>
    </g>
    <g id="xtick_6">
     <g id="line2d_11">
      <path clip-path="url(#p7c7b7c5bb2)" d="M 205.639167 238.04 
L 205.639167 16.46 
" style="fill:none;stroke:#b0b0b0;stroke-dasharray:0.8,1.32;stroke-dashoffset:0;stroke-width:0.8;"/>
     </g>
     <g id="line2d_12">
      <g>
       <use style="stroke:#000000;stroke-width:0.6;" x="205.639167" xlink:href="#mc67fd631da" y="238.04"/>
      </g>
     </g>
    </g>
    <g id="xtick_7">
     <g id="line2d_13">
      <path clip-path="url(#p7c7b7c5bb2)" d="M 235.625 238.04 
L 235.625 16.46 
" style="fill:none;stroke:#b0b0b0;stroke-dasharray:0.8,1.32;stroke-dashoffset:0;stroke-width:0.8;"/>
     </g>
     <g id="line2d_14">
      <g>
       <use style="stroke:#000000;stroke-width:0.6;" x="235.625" xlink:href="#mc67fd631da" y="238.04"/>
      </g>
     </g>
    </g>
    <g id="xtick_8">
     <g id="line2d_15">
      <path clip-path="url(#p7c7b7c5bb2)" d="M 265.610833 238.04 
L 265.610833 16.46 
" style="fill:none;stroke:#b0b0b0;stroke-dasharray:0.8,1.32;stroke-dashoffset:0;stroke-width:0.8;"/>
     </g>
     <g id="line2d_16">
      <g>
       <use style="stroke:#000000;stroke-width:0.6;" x="265.610833" xlink:href="#mc67fd631da" y="238.04"/>
      </g>
     </g>
    </g>
    <g id="xtick_9">
     <g id="line2d_17">
      <path clip-path="url(#p7c7b7c5bb2)" d="M 295.596667 238.04 
L 295.596667 16.46 
" style="fill:none;stroke:#b0b0b0;stroke-dasharray:0.8,1.32;stroke-dashoffset:0;stroke-width:0.8;"/>
     </g>
     <g id="line2d_18">
      <g>
       <use style="stroke:#000000;stroke-width:0.6;" x="295.596667" xlink:href="#mc67fd631da" y="238.04"/>
      </g>
     </g>
    </g>
    <g id="xtick_10">
     <g id="line2d_19">
      <path clip-path="url(#p7c7b7c5bb2)" d="M 325.5825 238.04 
L 325.5825 16.46 
" style="fill:none;stroke:#b0b0b0;stroke-dasharray:0.8,1.32;stroke-dashoffset:0;stroke-width:0.8;"/>
     </g>
     <g id="line2d_20">
      <g>
       <use style="stroke:#000000;stroke-width:0.6;" x="325.5825" xlink:href="#mc67fd631da" y="238.04"/>
      </g>
     </g>
    </g>
    <g id="xtick_11">
     <g id="line2d_21">
      <path clip-path="url(#p7c7b7c5bb2)" d="M 355.568333 238.04 
L 355.568333 16.46 
" style="fill:none;stroke:#b0b0b0;stroke-dasharray:0.8,1.32;stroke-dashoffset:0;stroke-width:0.8;"/>
     </g>
     <g id="line2d_22">
      <g>
       <use style="stroke:#000000;stroke-width:0.6;" x="355.568333" xlink:href="#mc67fd631da" y="238.04"/>
      </g>
     </g>
    </g>
    <g id="xtick_12">
     <g id="line2d_23">
      <path clip-path="url(#p7c7b7c5bb2)" d="M 415.54 238.04 
L 415.54 16.46 
" style="fill:none;stroke:#b0b0b0;stroke-dasharray:0.8,1.32;stroke-dashoffset:0;stroke-width:0.8;"/>
     </g>
     <g id="line2d_24">
      <g>
       <use style="stroke:#000000;stroke-width:0.6;" x="415.54" xlink:href="#mc67fd631da" y="238.04"/>
      </g>
     </g>
    </g>
    <g id="text_3">
     <!-- False positive rate -->
     <defs>
      <path d="M 9.8125 72.90625 
L 51.703125 72.90625 
L 51.703125 64.59375 
L 19.671875 64.59375 
L 19.671875 43.109375 
L 48.578125 43.109375 
L 48.578125 34.8125 
L 19.671875 34.8125 
L 19.671875 0 
L 9.8125 0 
z
" id="DejaVuSans-70"/>
      <path d="M 34.28125 27.484375 
Q 23.390625 27.484375 19.1875 25 
Q 14.984375 22.515625 14.984375 16.5 
Q 14.984375 11.71875 18.140625 8.90625 
Q 21.296875 6.109375 26.703125 6.109375 
Q 34.1875 6.109375 38.703125 11.40625 
Q 43.21875 16.703125 43.21875 25.484375 
L 43.21875 27.484375 
z
M 52.203125 31.203125 
L 52.203125 0 
L 43.21875 0 
L 43.21875 8.296875 
Q 40.140625 3.328125 35.546875 0.953125 
Q 30.953125 -1.421875 24.3125 -1.421875 
Q 15.921875 -1.421875 10.953125 3.296875 
Q 6 8.015625 6 15.921875 
Q 6 25.140625 12.171875 29.828125 
Q 18.359375 34.515625 30.609375 34.515625 
L 43.21875 34.515625 
L 43.21875 35.40625 
Q 43.21875 41.609375 39.140625 45 
Q 35.0625 48.390625 27.6875 48.390625 
Q 23 48.390625 18.546875 47.265625 
Q 14.109375 46.140625 10.015625 43.890625 
L 10.015625 52.203125 
Q 14.9375 54.109375 19.578125 55.046875 
Q 24.21875 56 28.609375 56 
Q 40.484375 56 46.34375 49.84375 
Q 52.203125 43.703125 52.203125 31.203125 
z
" id="DejaVuSans-97"/>
      <path d="M 9.421875 75.984375 
L 18.40625 75.984375 
L 18.40625 0 
L 9.421875 0 
z
" id="DejaVuSans-108"/>
      <path d="M 44.28125 53.078125 
L 44.28125 44.578125 
Q 40.484375 46.53125 36.375 47.5 
Q 32.28125 48.484375 27.875 48.484375 
Q 21.1875 48.484375 17.84375 46.4375 
Q 14.5 44.390625 14.5 40.28125 
Q 14.5 37.15625 16.890625 35.375 
Q 19.28125 33.59375 26.515625 31.984375 
L 29.59375 31.296875 
Q 39.15625 29.25 43.1875 25.515625 
Q 47.21875 21.78125 47.21875 15.09375 
Q 47.21875 7.46875 41.1875 3.015625 
Q 35.15625 -1.421875 24.609375 -1.421875 
Q 20.21875 -1.421875 15.453125 -0.5625 
Q 10.6875 0.296875 5.421875 2 
L 5.421875 11.28125 
Q 10.40625 8.6875 15.234375 7.390625 
Q 20.0625 6.109375 24.8125 6.109375 
Q 31.15625 6.109375 34.5625 8.28125 
Q 37.984375 10.453125 37.984375 14.40625 
Q 37.984375 18.0625 35.515625 20.015625 
Q 33.0625 21.96875 24.703125 23.78125 
L 21.578125 24.515625 
Q 13.234375 26.265625 9.515625 29.90625 
Q 5.8125 33.546875 5.8125 39.890625 
Q 5.8125 47.609375 11.28125 51.796875 
Q 16.75 56 26.8125 56 
Q 31.78125 56 36.171875 55.265625 
Q 40.578125 54.546875 44.28125 53.078125 
z
" id="DejaVuSans-115"/>
      <path d="M 56.203125 29.59375 
L 56.203125 25.203125 
L 14.890625 25.203125 
Q 15.484375 15.921875 20.484375 11.0625 
Q 25.484375 6.203125 34.421875 6.203125 
Q 39.59375 6.203125 44.453125 7.46875 
Q 49.3125 8.734375 54.109375 11.28125 
L 54.109375 2.78125 
Q 49.265625 0.734375 44.1875 -0.34375 
Q 39.109375 -1.421875 33.890625 -1.421875 
Q 20.796875 -1.421875 13.15625 6.1875 
Q 5.515625 13.8125 5.515625 26.8125 
Q 5.515625 40.234375 12.765625 48.109375 
Q 20.015625 56 32.328125 56 
Q 43.359375 56 49.78125 48.890625 
Q 56.203125 41.796875 56.203125 29.59375 
z
M 47.21875 32.234375 
Q 47.125 39.59375 43.09375 43.984375 
Q 39.0625 48.390625 32.421875 48.390625 
Q 24.90625 48.390625 20.390625 44.140625 
Q 15.875 39.890625 15.1875 32.171875 
z
" id="DejaVuSans-101"/>
      <path id="DejaVuSans-32"/>
      <path d="M 18.109375 8.203125 
L 18.109375 -20.796875 
L 9.078125 -20.796875 
L 9.078125 54.6875 
L 18.109375 54.6875 
L 18.109375 46.390625 
Q 20.953125 51.265625 25.265625 53.625 
Q 29.59375 56 35.59375 56 
Q 45.5625 56 51.78125 48.09375 
Q 58.015625 40.1875 58.015625 27.296875 
Q 58.015625 14.40625 51.78125 6.484375 
Q 45.5625 -1.421875 35.59375 -1.421875 
Q 29.59375 -1.421875 25.265625 0.953125 
Q 20.953125 3.328125 18.109375 8.203125 
z
M 48.6875 27.296875 
Q 48.6875 37.203125 44.609375 42.84375 
Q 40.53125 48.484375 33.40625 48.484375 
Q 26.265625 48.484375 22.1875 42.84375 
Q 18.109375 37.203125 18.109375 27.296875 
Q 18.109375 17.390625 22.1875 11.75 
Q 26.265625 6.109375 33.40625 6.109375 
Q 40.53125 6.109375 44.609375 11.75 
Q 48.6875 17.390625 48.6875 27.296875 
z
" id="DejaVuSans-112"/>
      <path d="M 30.609375 48.390625 
Q 23.390625 48.390625 19.1875 42.75 
Q 14.984375 37.109375 14.984375 27.296875 
Q 14.984375 17.484375 19.15625 11.84375 
Q 23.34375 6.203125 30.609375 6.203125 
Q 37.796875 6.203125 41.984375 11.859375 
Q 46.1875 17.53125 46.1875 27.296875 
Q 46.1875 37.015625 41.984375 42.703125 
Q 37.796875 48.390625 30.609375 48.390625 
z
M 30.609375 56 
Q 42.328125 56 49.015625 48.375 
Q 55.71875 40.765625 55.71875 27.296875 
Q 55.71875 13.875 49.015625 6.21875 
Q 42.328125 -1.421875 30.609375 -1.421875 
Q 18.84375 -1.421875 12.171875 6.21875 
Q 5.515625 13.875 5.515625 27.296875 
Q 5.515625 40.765625 12.171875 48.375 
Q 18.84375 56 30.609375 56 
z
" id="DejaVuSans-111"/>
      <path d="M 9.421875 54.6875 
L 18.40625 54.6875 
L 18.40625 0 
L 9.421875 0 
z
M 9.421875 75.984375 
L 18.40625 75.984375 
L 18.40625 64.59375 
L 9.421875 64.59375 
z
" id="DejaVuSans-105"/>
      <path d="M 18.3125 70.21875 
L 18.3125 54.6875 
L 36.8125 54.6875 
L 36.8125 47.703125 
L 18.3125 47.703125 
L 18.3125 18.015625 
Q 18.3125 11.328125 20.140625 9.421875 
Q 21.96875 7.515625 27.59375 7.515625 
L 36.8125 7.515625 
L 36.8125 0 
L 27.59375 0 
Q 17.1875 0 13.234375 3.875 
Q 9.28125 7.765625 9.28125 18.015625 
L 9.28125 47.703125 
L 2.6875 47.703125 
L 2.6875 54.6875 
L 9.28125 54.6875 
L 9.28125 70.21875 
z
" id="DejaVuSans-116"/>
      <path d="M 2.984375 54.6875 
L 12.5 54.6875 
L 29.59375 8.796875 
L 46.6875 54.6875 
L 56.203125 54.6875 
L 35.6875 0 
L 23.484375 0 
z
" id="DejaVuSans-118"/>
      <path d="M 41.109375 46.296875 
Q 39.59375 47.171875 37.8125 47.578125 
Q 36.03125 48 33.890625 48 
Q 26.265625 48 22.1875 43.046875 
Q 18.109375 38.09375 18.109375 28.8125 
L 18.109375 0 
L 9.078125 0 
L 9.078125 54.6875 
L 18.109375 54.6875 
L 18.109375 46.1875 
Q 20.953125 51.171875 25.484375 53.578125 
Q 30.03125 56 36.53125 56 
Q 37.453125 56 38.578125 55.875 
Q 39.703125 55.765625 41.0625 55.515625 
z
" id="DejaVuSans-114"/>
     </defs>
     <g transform="translate(180.485 269.771875)scale(0.12 -0.12)">
      <use xlink:href="#DejaVuSans-70"/>
      <use x="57.378906" xlink:href="#DejaVuSans-97"/>
      <use x="118.658203" xlink:href="#DejaVuSans-108"/>
      <use x="146.441406" xlink:href="#DejaVuSans-115"/>
      <use x="198.541016" xlink:href="#DejaVuSans-101"/>
      <use x="260.064453" xlink:href="#DejaVuSans-32"/>
      <use x="291.851562" xlink:href="#DejaVuSans-112"/>
      <use x="355.328125" xlink:href="#DejaVuSans-111"/>
      <use x="416.509766" xlink:href="#DejaVuSans-115"/>
      <use x="468.609375" xlink:href="#DejaVuSans-105"/>
      <use x="496.392578" xlink:href="#DejaVuSans-116"/>
      <use x="535.601562" xlink:href="#DejaVuSans-105"/>
      <use x="563.384766" xlink:href="#DejaVuSans-118"/>
      <use x="622.564453" xlink:href="#DejaVuSans-101"/>
      <use x="684.087891" xlink:href="#DejaVuSans-32"/>
      <use x="715.875" xlink:href="#DejaVuSans-114"/>
      <use x="756.988281" xlink:href="#DejaVuSans-97"/>
      <use x="818.267578" xlink:href="#DejaVuSans-116"/>
      <use x="857.476562" xlink:href="#DejaVuSans-101"/>
     </g>
    </g>
   </g>
   <g id="matplotlib.axis_2">
    <g id="ytick_1">
     <g id="line2d_25">
      <path clip-path="url(#p7c7b7c5bb2)" d="M 55.71 219.575 
L 415.54 219.575 
" style="fill:none;stroke:#b0b0b0;stroke-dasharray:0.8,1.32;stroke-dashoffset:0;stroke-width:0.8;"/>
     </g>
     <g id="line2d_26">
      <defs>
       <path d="M 0 0 
L -3.5 0 
" id="m5c3e319382" style="stroke:#000000;stroke-width:0.8;"/>
      </defs>
      <g>
       <use style="stroke:#000000;stroke-width:0.8;" x="55.71" xlink:href="#m5c3e319382" y="219.575"/>
      </g>
     </g>
     <g id="text_4">
      <!-- 0.0 -->
      <g transform="translate(29.62625 224.134063)scale(0.12 -0.12)">
       <use xlink:href="#DejaVuSans-48"/>
       <use x="63.623047" xlink:href="#DejaVuSans-46"/>
       <use x="95.410156" xlink:href="#DejaVuSans-48"/>
      </g>
     </g>
    </g>
    <g id="ytick_2">
     <g id="line2d_27">
      <path clip-path="url(#p7c7b7c5bb2)" d="M 55.71 34.925 
L 415.54 34.925 
" style="fill:none;stroke:#b0b0b0;stroke-dasharray:0.8,1.32;stroke-dashoffset:0;stroke-width:0.8;"/>
     </g>
     <g id="line2d_28">
      <g>
       <use style="stroke:#000000;stroke-width:0.8;" x="55.71" xlink:href="#m5c3e319382" y="34.925"/>
      </g>
     </g>
     <g id="text_5">
      <!-- 0.5 -->
      <g transform="translate(29.62625 39.484063)scale(0.12 -0.12)">
       <use xlink:href="#DejaVuSans-48"/>
       <use x="63.623047" xlink:href="#DejaVuSans-46"/>
       <use x="95.410156" xlink:href="#DejaVuSans-53"/>
      </g>
     </g>
    </g>
    <g id="ytick_3">
     <g id="line2d_29">
      <path clip-path="url(#p7c7b7c5bb2)" d="M 55.71 201.11 
L 415.54 201.11 
" style="fill:none;stroke:#b0b0b0;stroke-dasharray:0.8,1.32;stroke-dashoffset:0;stroke-width:0.8;"/>
     </g>
     <g id="line2d_30">
      <defs>
       <path d="M 0 0 
L -2 0 
" id="m5b539f921a" style="stroke:#000000;stroke-width:0.6;"/>
      </defs>
      <g>
       <use style="stroke:#000000;stroke-width:0.6;" x="55.71" xlink:href="#m5b539f921a" y="201.11"/>
      </g>
     </g>
    </g>
    <g id="ytick_4">
     <g id="line2d_31">
      <path clip-path="url(#p7c7b7c5bb2)" d="M 55.71 182.645 
L 415.54 182.645 
" style="fill:none;stroke:#b0b0b0;stroke-dasharray:0.8,1.32;stroke-dashoffset:0;stroke-width:0.8;"/>
     </g>
     <g id="line2d_32">
      <g>
       <use style="stroke:#000000;stroke-width:0.6;" x="55.71" xlink:href="#m5b539f921a" y="182.645"/>
      </g>
     </g>
    </g>
    <g id="ytick_5">
     <g id="line2d_33">
      <path clip-path="url(#p7c7b7c5bb2)" d="M 55.71 164.18 
L 415.54 164.18 
" style="fill:none;stroke:#b0b0b0;stroke-dasharray:0.8,1.32;stroke-dashoffset:0;stroke-width:0.8;"/>
     </g>
     <g id="line2d_34">
      <g>
       <use style="stroke:#000000;stroke-width:0.6;" x="55.71" xlink:href="#m5b539f921a" y="164.18"/>
      </g>
     </g>
    </g>
    <g id="ytick_6">
     <g id="line2d_35">
      <path clip-path="url(#p7c7b7c5bb2)" d="M 55.71 145.715 
L 415.54 145.715 
" style="fill:none;stroke:#b0b0b0;stroke-dasharray:0.8,1.32;stroke-dashoffset:0;stroke-width:0.8;"/>
     </g>
     <g id="line2d_36">
      <g>
       <use style="stroke:#000000;stroke-width:0.6;" x="55.71" xlink:href="#m5b539f921a" y="145.715"/>
      </g>
     </g>
    </g>
    <g id="ytick_7">
     <g id="line2d_37">
      <path clip-path="url(#p7c7b7c5bb2)" d="M 55.71 127.25 
L 415.54 127.25 
" style="fill:none;stroke:#b0b0b0;stroke-dasharray:0.8,1.32;stroke-dashoffset:0;stroke-width:0.8;"/>
     </g>
     <g id="line2d_38">
      <g>
       <use style="stroke:#000000;stroke-width:0.6;" x="55.71" xlink:href="#m5b539f921a" y="127.25"/>
      </g>
     </g>
    </g>
    <g id="ytick_8">
     <g id="line2d_39">
      <path clip-path="url(#p7c7b7c5bb2)" d="M 55.71 108.785 
L 415.54 108.785 
" style="fill:none;stroke:#b0b0b0;stroke-dasharray:0.8,1.32;stroke-dashoffset:0;stroke-width:0.8;"/>
     </g>
     <g id="line2d_40">
      <g>
       <use style="stroke:#000000;stroke-width:0.6;" x="55.71" xlink:href="#m5b539f921a" y="108.785"/>
      </g>
     </g>
    </g>
    <g id="ytick_9">
     <g id="line2d_41">
      <path clip-path="url(#p7c7b7c5bb2)" d="M 55.71 90.32 
L 415.54 90.32 
" style="fill:none;stroke:#b0b0b0;stroke-dasharray:0.8,1.32;stroke-dashoffset:0;stroke-width:0.8;"/>
     </g>
     <g id="line2d_42">
      <g>
       <use style="stroke:#000000;stroke-width:0.6;" x="55.71" xlink:href="#m5b539f921a" y="90.32"/>
      </g>
     </g>
    </g>
    <g id="ytick_10">
     <g id="line2d_43">
      <path clip-path="url(#p7c7b7c5bb2)" d="M 55.71 71.855 
L 415.54 71.855 
" style="fill:none;stroke:#b0b0b0;stroke-dasharray:0.8,1.32;stroke-dashoffset:0;stroke-width:0.8;"/>
     </g>
     <g id="line2d_44">
      <g>
       <use style="stroke:#000000;stroke-width:0.6;" x="55.71" xlink:href="#m5b539f921a" y="71.855"/>
      </g>
     </g>
    </g>
    <g id="ytick_11">
     <g id="line2d_45">
      <path clip-path="url(#p7c7b7c5bb2)" d="M 55.71 53.39 
L 415.54 53.39 
" style="fill:none;stroke:#b0b0b0;stroke-dasharray:0.8,1.32;stroke-dashoffset:0;stroke-width:0.8;"/>
     </g>
     <g id="line2d_46">
      <g>
       <use style="stroke:#000000;stroke-width:0.6;" x="55.71" xlink:href="#m5b539f921a" y="53.39"/>
      </g>
     </g>
    </g>
    <g id="ytick_12">
     <g id="line2d_47">
      <path clip-path="url(#p7c7b7c5bb2)" d="M 55.71 16.46 
L 415.54 16.46 
" style="fill:none;stroke:#b0b0b0;stroke-dasharray:0.8,1.32;stroke-dashoffset:0;stroke-width:0.8;"/>
     </g>
     <g id="line2d_48">
      <g>
       <use style="stroke:#000000;stroke-width:0.6;" x="55.71" xlink:href="#m5b539f921a" y="16.46"/>
      </g>
     </g>
    </g>
    <g id="text_6">
     <!-- False negative rate -->
     <defs>
      <path d="M 54.890625 33.015625 
L 54.890625 0 
L 45.90625 0 
L 45.90625 32.71875 
Q 45.90625 40.484375 42.875 44.328125 
Q 39.84375 48.1875 33.796875 48.1875 
Q 26.515625 48.1875 22.3125 43.546875 
Q 18.109375 38.921875 18.109375 30.90625 
L 18.109375 0 
L 9.078125 0 
L 9.078125 54.6875 
L 18.109375 54.6875 
L 18.109375 46.1875 
Q 21.34375 51.125 25.703125 53.5625 
Q 30.078125 56 35.796875 56 
Q 45.21875 56 50.046875 50.171875 
Q 54.890625 44.34375 54.890625 33.015625 
z
" id="DejaVuSans-110"/>
      <path d="M 45.40625 27.984375 
Q 45.40625 37.75 41.375 43.109375 
Q 37.359375 48.484375 30.078125 48.484375 
Q 22.859375 48.484375 18.828125 43.109375 
Q 14.796875 37.75 14.796875 27.984375 
Q 14.796875 18.265625 18.828125 12.890625 
Q 22.859375 7.515625 30.078125 7.515625 
Q 37.359375 7.515625 41.375 12.890625 
Q 45.40625 18.265625 45.40625 27.984375 
z
M 54.390625 6.78125 
Q 54.390625 -7.171875 48.1875 -13.984375 
Q 42 -20.796875 29.203125 -20.796875 
Q 24.46875 -20.796875 20.265625 -20.09375 
Q 16.0625 -19.390625 12.109375 -17.921875 
L 12.109375 -9.1875 
Q 16.0625 -11.328125 19.921875 -12.34375 
Q 23.78125 -13.375 27.78125 -13.375 
Q 36.625 -13.375 41.015625 -8.765625 
Q 45.40625 -4.15625 45.40625 5.171875 
L 45.40625 9.625 
Q 42.625 4.78125 38.28125 2.390625 
Q 33.9375 0 27.875 0 
Q 17.828125 0 11.671875 7.65625 
Q 5.515625 15.328125 5.515625 27.984375 
Q 5.515625 40.671875 11.671875 48.328125 
Q 17.828125 56 27.875 56 
Q 33.9375 56 38.28125 53.609375 
Q 42.625 51.21875 45.40625 46.390625 
L 45.40625 54.6875 
L 54.390625 54.6875 
z
" id="DejaVuSans-103"/>
     </defs>
     <g transform="translate(23.130625 185.0975)rotate(-90)scale(0.12 -0.12)">
      <use xlink:href="#DejaVuSans-70"/>
      <use x="57.378906" xlink:href="#DejaVuSans-97"/>
      <use x="118.658203" xlink:href="#DejaVuSans-108"/>
      <use x="146.441406" xlink:href="#DejaVuSans-115"/>
      <use x="198.541016" xlink:href="#DejaVuSans-101"/>
      <use x="260.064453" xlink:href="#DejaVuSans-32"/>
      <use x="291.851562" xlink:href="#DejaVuSans-110"/>
      <use x="355.230469" xlink:href="#DejaVuSans-101"/>
      <use x="416.753906" xlink:href="#DejaVuSans-103"/>
      <use x="480.230469" xlink:href="#DejaVuSans-97"/>
      <use x="541.509766" xlink:href="#DejaVuSans-116"/>
      <use x="580.71875" xlink:href="#DejaVuSans-105"/>
      <use x="608.501953" xlink:href="#DejaVuSans-118"/>
      <use x="667.681641" xlink:href="#DejaVuSans-101"/>
      <use x="729.205078" xlink:href="#DejaVuSans-32"/>
      <use x="760.992188" xlink:href="#DejaVuSans-114"/>
      <use x="802.105469" xlink:href="#DejaVuSans-97"/>
      <use x="863.384766" xlink:href="#DejaVuSans-116"/>
      <use x="902.59375" xlink:href="#DejaVuSans-101"/>
     </g>
    </g>
   </g>
   <g id="patch_3">
    <path d="M 55.71 238.04 
L 55.71 16.46 
" style="fill:none;stroke:#000000;stroke-linecap:square;stroke-linejoin:miter;stroke-width:0.8;"/>
   </g>
   <g id="patch_4">
    <path d="M 415.54 238.04 
L 415.54 16.46 
" style="fill:none;stroke:#000000;stroke-linecap:square;stroke-linejoin:miter;stroke-width:0.8;"/>
   </g>
   <g id="patch_5">
    <path d="M 55.71 238.04 
L 415.54 238.04 
" style="fill:none;stroke:#000000;stroke-linecap:square;stroke-linejoin:miter;stroke-width:0.8;"/>
   </g>
   <g id="patch_6">
    <path d="M 55.71 16.46 
L 415.54 16.46 
" style="fill:none;stroke:#000000;stroke-linecap:square;stroke-linejoin:miter;stroke-width:0.8;"/>
   </g>
   <g id="PathCollection_2">
    <defs>
     <path d="M -4.472136 4.472136 
L 4.472136 4.472136 
L 4.472136 -4.472136 
L -4.472136 -4.472136 
z
" id="mbbc20382c2" style="stroke:#ffffff;stroke-opacity:0.4;"/>
    </defs>
    <g clip-path="url(#p7c7b7c5bb2)">
     <use style="fill:#1f77b4;fill-opacity:0.4;stroke:#ffffff;stroke-opacity:0.4;" x="96.910535" xlink:href="#mbbc20382c2" y="197.618884"/>
     <use style="fill:#1f77b4;fill-opacity:0.4;stroke:#ffffff;stroke-opacity:0.4;" x="97.09045" xlink:href="#mbbc20382c2" y="197.026363"/>
     <use style="fill:#1f77b4;fill-opacity:0.4;stroke:#ffffff;stroke-opacity:0.4;" x="97.45028" xlink:href="#mbbc20382c2" y="197.861801"/>
     <use style="fill:#1f77b4;fill-opacity:0.4;stroke:#ffffff;stroke-opacity:0.4;" x="103.987192" xlink:href="#mbbc20382c2" y="126.688664"/>
     <use style="fill:#1f77b4;fill-opacity:0.4;stroke:#ffffff;stroke-opacity:0.4;" x="104.107135" xlink:href="#mbbc20382c2" y="127.475683"/>
     <use style="fill:#1f77b4;fill-opacity:0.4;stroke:#ffffff;stroke-opacity:0.4;" x="104.227078" xlink:href="#mbbc20382c2" y="128.243827"/>
     <use style="fill:#1f77b4;fill-opacity:0.4;stroke:#ffffff;stroke-opacity:0.4;" x="104.766823" xlink:href="#mbbc20382c2" y="127.404285"/>
     <use style="fill:#1f77b4;fill-opacity:0.4;stroke:#ffffff;stroke-opacity:0.4;" x="104.946738" xlink:href="#mbbc20382c2" y="128.451456"/>
     <use style="fill:#1f77b4;fill-opacity:0.4;stroke:#ffffff;stroke-opacity:0.4;" x="115.681667" xlink:href="#mbbc20382c2" y="131.368105"/>
     <use style="fill:#1f77b4;fill-opacity:0.4;stroke:#ffffff;stroke-opacity:0.4;" x="128.028008" xlink:href="#mbbc20382c2" y="-1"/>
     <use style="fill:#1f77b4;fill-opacity:0.4;stroke:#ffffff;stroke-opacity:0.4;" x="129.639768" xlink:href="#mbbc20382c2" y="-1"/>
     <use style="fill:#1f77b4;fill-opacity:0.4;stroke:#ffffff;stroke-opacity:0.4;" x="132.953507" xlink:href="#mbbc20382c2" y="164.700303"/>
     <use style="fill:#1f77b4;fill-opacity:0.4;stroke:#ffffff;stroke-opacity:0.4;" x="144.22818" xlink:href="#mbbc20382c2" y="27.708057"/>
     <use style="fill:#1f77b4;fill-opacity:0.4;stroke:#ffffff;stroke-opacity:0.4;" x="145.067783" xlink:href="#mbbc20382c2" y="199.939729"/>
     <use style="fill:#1f77b4;fill-opacity:0.4;stroke:#ffffff;stroke-opacity:0.4;" x="145.427613" xlink:href="#mbbc20382c2" y="199.801037"/>
     <use style="fill:#1f77b4;fill-opacity:0.4;stroke:#ffffff;stroke-opacity:0.4;" x="145.487585" xlink:href="#mbbc20382c2" y="85.734115"/>
     <use style="fill:#1f77b4;fill-opacity:0.4;stroke:#ffffff;stroke-opacity:0.4;" x="145.787443" xlink:href="#mbbc20382c2" y="199.929061"/>
     <use style="fill:#1f77b4;fill-opacity:0.4;stroke:#ffffff;stroke-opacity:0.4;" x="146.027048" xlink:href="#mbbc20382c2" y="-1"/>
     <use style="fill:#1f77b4;fill-opacity:0.4;stroke:#ffffff;stroke-opacity:0.4;" x="146.029856" xlink:href="#mbbc20382c2" y="-1"/>
     <use style="fill:#1f77b4;fill-opacity:0.4;stroke:#ffffff;stroke-opacity:0.4;" x="147.046848" xlink:href="#mbbc20382c2" y="94.379017"/>
     <use style="fill:#1f77b4;fill-opacity:0.4;stroke:#ffffff;stroke-opacity:0.4;" x="147.46665" xlink:href="#mbbc20382c2" y="141.033097"/>
     <use style="fill:#1f77b4;fill-opacity:0.4;stroke:#ffffff;stroke-opacity:0.4;" x="148.18631" xlink:href="#mbbc20382c2" y="141.442609"/>
     <use style="fill:#1f77b4;fill-opacity:0.4;stroke:#ffffff;stroke-opacity:0.4;" x="148.54614" xlink:href="#mbbc20382c2" y="145.942325"/>
     <use style="fill:#1f77b4;fill-opacity:0.4;stroke:#ffffff;stroke-opacity:0.4;" x="148.54614" xlink:href="#mbbc20382c2" y="200.059547"/>
     <use style="fill:#1f77b4;fill-opacity:0.4;stroke:#ffffff;stroke-opacity:0.4;" x="149.025913" xlink:href="#mbbc20382c2" y="140.186989"/>
     <use style="fill:#1f77b4;fill-opacity:0.4;stroke:#ffffff;stroke-opacity:0.4;" x="149.085885" xlink:href="#mbbc20382c2" y="140.921486"/>
     <use style="fill:#1f77b4;fill-opacity:0.4;stroke:#ffffff;stroke-opacity:0.4;" x="149.325772" xlink:href="#mbbc20382c2" y="140.504587"/>
     <use style="fill:#1f77b4;fill-opacity:0.4;stroke:#ffffff;stroke-opacity:0.4;" x="151.484752" xlink:href="#mbbc20382c2" y="165.747473"/>
     <use style="fill:#1f77b4;fill-opacity:0.4;stroke:#ffffff;stroke-opacity:0.4;" x="179.311605" xlink:href="#mbbc20382c2" y="5.188964"/>
     <use style="fill:#1f77b4;fill-opacity:0.4;stroke:#ffffff;stroke-opacity:0.4;" x="198.982312" xlink:href="#mbbc20382c2" y="43.048779"/>
     <use style="fill:#1f77b4;fill-opacity:0.4;stroke:#ffffff;stroke-opacity:0.4;" x="200.181745" xlink:href="#mbbc20382c2" y="193.89634"/>
     <use style="fill:#1f77b4;fill-opacity:0.4;stroke:#ffffff;stroke-opacity:0.4;" x="216.733925" xlink:href="#mbbc20382c2" y="26.84964"/>
     <use style="fill:#1f77b4;fill-opacity:0.4;stroke:#ffffff;stroke-opacity:0.4;" x="217.6335" xlink:href="#mbbc20382c2" y="216.064188"/>
     <use style="fill:#1f77b4;fill-opacity:0.4;stroke:#ffffff;stroke-opacity:0.4;" x="231.906757" xlink:href="#mbbc20382c2" y="26.179155"/>
     <use style="fill:#1f77b4;fill-opacity:0.4;stroke:#ffffff;stroke-opacity:0.4;" x="262.432335" xlink:href="#mbbc20382c2" y="218.953755"/>
     <use style="fill:#1f77b4;fill-opacity:0.4;stroke:#ffffff;stroke-opacity:0.4;" x="264.111542" xlink:href="#mbbc20382c2" y="201.068967"/>
     <use style="fill:#1f77b4;fill-opacity:0.4;stroke:#ffffff;stroke-opacity:0.4;" x="264.231485" xlink:href="#mbbc20382c2" y="201.213404"/>
     <use style="fill:#1f77b4;fill-opacity:0.4;stroke:#ffffff;stroke-opacity:0.4;" x="264.531343" xlink:href="#mbbc20382c2" y="201.009058"/>
     <use style="fill:#1f77b4;fill-opacity:0.4;stroke:#ffffff;stroke-opacity:0.4;" x="264.951145" xlink:href="#mbbc20382c2" y="201.041885"/>
     <use style="fill:#1f77b4;fill-opacity:0.4;stroke:#ffffff;stroke-opacity:0.4;" x="265.071088" xlink:href="#mbbc20382c2" y="123.724416"/>
     <use style="fill:#1f77b4;fill-opacity:0.4;stroke:#ffffff;stroke-opacity:0.4;" x="265.251003" xlink:href="#mbbc20382c2" y="201.184681"/>
     <use style="fill:#1f77b4;fill-opacity:0.4;stroke:#ffffff;stroke-opacity:0.4;" x="265.251003" xlink:href="#mbbc20382c2" y="87.303229"/>
     <use style="fill:#1f77b4;fill-opacity:0.4;stroke:#ffffff;stroke-opacity:0.4;" x="265.310975" xlink:href="#mbbc20382c2" y="194.102327"/>
     <use style="fill:#1f77b4;fill-opacity:0.4;stroke:#ffffff;stroke-opacity:0.4;" x="265.310975" xlink:href="#mbbc20382c2" y="201.101793"/>
     <use style="fill:#1f77b4;fill-opacity:0.4;stroke:#ffffff;stroke-opacity:0.4;" x="265.310975" xlink:href="#mbbc20382c2" y="121.923873"/>
     <use style="fill:#1f77b4;fill-opacity:0.4;stroke:#ffffff;stroke-opacity:0.4;" x="265.49089" xlink:href="#mbbc20382c2" y="165.556258"/>
     <use style="fill:#1f77b4;fill-opacity:0.4;stroke:#ffffff;stroke-opacity:0.4;" x="265.610833" xlink:href="#mbbc20382c2" y="166.897227"/>
     <use style="fill:#1f77b4;fill-opacity:0.4;stroke:#ffffff;stroke-opacity:0.4;" x="265.730777" xlink:href="#mbbc20382c2" y="37.939309"/>
     <use style="fill:#1f77b4;fill-opacity:0.4;stroke:#ffffff;stroke-opacity:0.4;" x="266.090607" xlink:href="#mbbc20382c2" y="165.125408"/>
     <use style="fill:#1f77b4;fill-opacity:0.4;stroke:#ffffff;stroke-opacity:0.4;" x="266.450437" xlink:href="#mbbc20382c2" y="184.873931"/>
     <use style="fill:#1f77b4;fill-opacity:0.4;stroke:#ffffff;stroke-opacity:0.4;" x="266.450437" xlink:href="#mbbc20382c2" y="211.079459"/>
     <use style="fill:#1f77b4;fill-opacity:0.4;stroke:#ffffff;stroke-opacity:0.4;" x="266.450437" xlink:href="#mbbc20382c2" y="200.92535"/>
     <use style="fill:#1f77b4;fill-opacity:0.4;stroke:#ffffff;stroke-opacity:0.4;" x="266.510408" xlink:href="#mbbc20382c2" y="166.117594"/>
     <use style="fill:#1f77b4;fill-opacity:0.4;stroke:#ffffff;stroke-opacity:0.4;" x="266.870238" xlink:href="#mbbc20382c2" y="166.445861"/>
     <use style="fill:#1f77b4;fill-opacity:0.4;stroke:#ffffff;stroke-opacity:0.4;" x="267.409983" xlink:href="#mbbc20382c2" y="215.794189"/>
     <use style="fill:#1f77b4;fill-opacity:0.4;stroke:#ffffff;stroke-opacity:0.4;" x="275.746045" xlink:href="#mbbc20382c2" y="218.883178"/>
     <use style="fill:#1f77b4;fill-opacity:0.4;stroke:#ffffff;stroke-opacity:0.4;" x="282.882673" xlink:href="#mbbc20382c2" y="39.017665"/>
     <use style="fill:#1f77b4;fill-opacity:0.4;stroke:#ffffff;stroke-opacity:0.4;" x="283.782248" xlink:href="#mbbc20382c2" y="37.663565"/>
     <use style="fill:#1f77b4;fill-opacity:0.4;stroke:#ffffff;stroke-opacity:0.4;" x="383.215272" xlink:href="#mbbc20382c2" y="217.035037"/>
     <use style="fill:#1f77b4;fill-opacity:0.4;stroke:#ffffff;stroke-opacity:0.4;" x="384.294762" xlink:href="#mbbc20382c2" y="202.414039"/>
     <use style="fill:#1f77b4;fill-opacity:0.4;stroke:#ffffff;stroke-opacity:0.4;" x="384.354733" xlink:href="#mbbc20382c2" y="202.231031"/>
     <use style="fill:#1f77b4;fill-opacity:0.4;stroke:#ffffff;stroke-opacity:0.4;" x="384.654592" xlink:href="#mbbc20382c2" y="202.147323"/>
     <use style="fill:#1f77b4;fill-opacity:0.4;stroke:#ffffff;stroke-opacity:0.4;" x="385.014422" xlink:href="#mbbc20382c2" y="207.341322"/>
     <use style="fill:#1f77b4;fill-opacity:0.4;stroke:#ffffff;stroke-opacity:0.4;" x="385.014422" xlink:href="#mbbc20382c2" y="202.013554"/>
     <use style="fill:#1f77b4;fill-opacity:0.4;stroke:#ffffff;stroke-opacity:0.4;" x="385.074393" xlink:href="#mbbc20382c2" y="202.47641"/>
     <use style="fill:#1f77b4;fill-opacity:0.4;stroke:#ffffff;stroke-opacity:0.4;" x="385.134365" xlink:href="#mbbc20382c2" y="150.937723"/>
     <use style="fill:#1f77b4;fill-opacity:0.4;stroke:#ffffff;stroke-opacity:0.4;" x="385.134365" xlink:href="#mbbc20382c2" y="215.396165"/>
     <use style="fill:#1f77b4;fill-opacity:0.4;stroke:#ffffff;stroke-opacity:0.4;" x="385.194337" xlink:href="#mbbc20382c2" y="137.847269"/>
     <use style="fill:#1f77b4;fill-opacity:0.4;stroke:#ffffff;stroke-opacity:0.4;" x="385.254308" xlink:href="#mbbc20382c2" y="199.609821"/>
     <use style="fill:#1f77b4;fill-opacity:0.4;stroke:#ffffff;stroke-opacity:0.4;" x="385.374252" xlink:href="#mbbc20382c2" y="201.962673"/>
     <use style="fill:#1f77b4;fill-opacity:0.4;stroke:#ffffff;stroke-opacity:0.4;" x="385.434223" xlink:href="#mbbc20382c2" y="202.117779"/>
     <use style="fill:#1f77b4;fill-opacity:0.4;stroke:#ffffff;stroke-opacity:0.4;" x="385.494195" xlink:href="#mbbc20382c2" y="198.750583"/>
     <use style="fill:#1f77b4;fill-opacity:0.4;stroke:#ffffff;stroke-opacity:0.4;" x="385.67411" xlink:href="#mbbc20382c2" y="118.198867"/>
     <use style="fill:#1f77b4;fill-opacity:0.4;stroke:#ffffff;stroke-opacity:0.4;" x="385.794053" xlink:href="#mbbc20382c2" y="210.544384"/>
     <use style="fill:#1f77b4;fill-opacity:0.4;stroke:#ffffff;stroke-opacity:0.4;" x="385.794053" xlink:href="#mbbc20382c2" y="199.353773"/>
     <use style="fill:#1f77b4;fill-opacity:0.4;stroke:#ffffff;stroke-opacity:0.4;" x="385.854025" xlink:href="#mbbc20382c2" y="198.675903"/>
     <use style="fill:#1f77b4;fill-opacity:0.4;stroke:#ffffff;stroke-opacity:0.4;" x="385.854025" xlink:href="#mbbc20382c2" y="198.603684"/>
     <use style="fill:#1f77b4;fill-opacity:0.4;stroke:#ffffff;stroke-opacity:0.4;" x="386.693628" xlink:href="#mbbc20382c2" y="72.037188"/>
     <use style="fill:#1f77b4;fill-opacity:0.4;stroke:#ffffff;stroke-opacity:0.4;" x="388.312863" xlink:href="#mbbc20382c2" y="70.033941"/>
     <use style="fill:#1f77b4;fill-opacity:0.4;stroke:#ffffff;stroke-opacity:0.4;" x="389.872127" xlink:href="#mbbc20382c2" y="74.473747"/>
     <use style="fill:#1f77b4;fill-opacity:0.4;stroke:#ffffff;stroke-opacity:0.4;" x="393.350483" xlink:href="#mbbc20382c2" y="68.022487"/>
     <use style="fill:#1f77b4;fill-opacity:0.4;stroke:#ffffff;stroke-opacity:0.4;" x="502.498917" xlink:href="#mbbc20382c2" y="106.530629"/>
     <use style="fill:#1f77b4;fill-opacity:0.4;stroke:#ffffff;stroke-opacity:0.4;" x="504.717868" xlink:href="#mbbc20382c2" y="217.658743"/>
     <use style="fill:#1f77b4;fill-opacity:0.4;stroke:#ffffff;stroke-opacity:0.4;" x="504.957755" xlink:href="#mbbc20382c2" y="206.052055"/>
     <use style="fill:#1f77b4;fill-opacity:0.4;stroke:#ffffff;stroke-opacity:0.4;" x="505.017727" xlink:href="#mbbc20382c2" y="215.920571"/>
     <use style="fill:#1f77b4;fill-opacity:0.4;stroke:#ffffff;stroke-opacity:0.4;" x="505.257613" xlink:href="#mbbc20382c2" y="206.067647"/>
     <use style="fill:#1f77b4;fill-opacity:0.4;stroke:#ffffff;stroke-opacity:0.4;" x="505.257613" xlink:href="#mbbc20382c2" y="205.784517"/>
     <use style="fill:#1f77b4;fill-opacity:0.4;stroke:#ffffff;stroke-opacity:0.4;" x="505.317585" xlink:href="#mbbc20382c2" y="206.04631"/>
     <use style="fill:#1f77b4;fill-opacity:0.4;stroke:#ffffff;stroke-opacity:0.4;" x="505.317585" xlink:href="#mbbc20382c2" y="206.129197"/>
     <use style="fill:#1f77b4;fill-opacity:0.4;stroke:#ffffff;stroke-opacity:0.4;" x="505.317585" xlink:href="#mbbc20382c2" y="218.790443"/>
     <use style="fill:#1f77b4;fill-opacity:0.4;stroke:#ffffff;stroke-opacity:0.4;" x="505.317585" xlink:href="#mbbc20382c2" y="218.748589"/>
     <use style="fill:#1f77b4;fill-opacity:0.4;stroke:#ffffff;stroke-opacity:0.4;" x="505.377557" xlink:href="#mbbc20382c2" y="216.162668"/>
     <use style="fill:#1f77b4;fill-opacity:0.4;stroke:#ffffff;stroke-opacity:0.4;" x="505.557472" xlink:href="#mbbc20382c2" y="205.894487"/>
     <use style="fill:#1f77b4;fill-opacity:0.4;stroke:#ffffff;stroke-opacity:0.4;" x="505.677415" xlink:href="#mbbc20382c2" y="206.156279"/>
     <use style="fill:#1f77b4;fill-opacity:0.4;stroke:#ffffff;stroke-opacity:0.4;" x="505.677415" xlink:href="#mbbc20382c2" y="156.909714"/>
     <use style="fill:#1f77b4;fill-opacity:0.4;stroke:#ffffff;stroke-opacity:0.4;" x="505.737387" xlink:href="#mbbc20382c2" y="171.085089"/>
     <use style="fill:#1f77b4;fill-opacity:0.4;stroke:#ffffff;stroke-opacity:0.4;" x="505.737387" xlink:href="#mbbc20382c2" y="138.016326"/>
     <use style="fill:#1f77b4;fill-opacity:0.4;stroke:#ffffff;stroke-opacity:0.4;" x="505.797358" xlink:href="#mbbc20382c2" y="120.283361"/>
     <use style="fill:#1f77b4;fill-opacity:0.4;stroke:#ffffff;stroke-opacity:0.4;" x="506.037245" xlink:href="#mbbc20382c2" y="218.431811"/>
     <use style="fill:#1f77b4;fill-opacity:0.4;stroke:#ffffff;stroke-opacity:0.4;" x="506.157188" xlink:href="#mbbc20382c2" y="218.838862"/>
     <use style="fill:#1f77b4;fill-opacity:0.4;stroke:#ffffff;stroke-opacity:0.4;" x="506.157188" xlink:href="#mbbc20382c2" y="218.766643"/>
     <use style="fill:#1f77b4;fill-opacity:0.4;stroke:#ffffff;stroke-opacity:0.4;" x="506.397075" xlink:href="#mbbc20382c2" y="108.87117"/>
     <use style="fill:#1f77b4;fill-opacity:0.4;stroke:#ffffff;stroke-opacity:0.4;" x="506.57699" xlink:href="#mbbc20382c2" y="218.802753"/>
     <use style="fill:#1f77b4;fill-opacity:0.4;stroke:#ffffff;stroke-opacity:0.4;" x="527.627045" xlink:href="#mbbc20382c2" y="146.604603"/>
     <use style="fill:#1f77b4;fill-opacity:0.4;stroke:#ffffff;stroke-opacity:0.4;" x="541.360557" xlink:href="#mbbc20382c2" y="214.039603"/>
     <use style="fill:#1f77b4;fill-opacity:0.4;stroke:#ffffff;stroke-opacity:0.4;" x="547.057865" xlink:href="#mbbc20382c2" y="155.387377"/>
     <use style="fill:#1f77b4;fill-opacity:0.4;stroke:#ffffff;stroke-opacity:0.4;" x="548.017412" xlink:href="#mbbc20382c2" y="155.572848"/>
    </g>
   </g>
   <g id="legend_1">
    <g id="patch_7">
     <path d="M 318.085 78.90125 
L 407.14 78.90125 
Q 409.54 78.90125 409.54 76.50125 
L 409.54 24.86 
Q 409.54 22.46 407.14 22.46 
L 318.085 22.46 
Q 315.685 22.46 315.685 24.86 
L 315.685 76.50125 
Q 315.685 78.90125 318.085 78.90125 
z
" style="fill:#ffffff;opacity:0.8;stroke:#cccccc;stroke-linejoin:miter;"/>
    </g>
    <g id="line2d_49">
     <path d="M 320.485 32.178125 
L 344.485 32.178125 
" style="fill:none;stroke:#000000;stroke-linecap:square;stroke-width:1.4;"/>
    </g>
    <g id="line2d_50">
     <defs>
      <path d="M 0 -4 
L -4 4 
L 4 4 
z
" id="m00fae20636" style="stroke:#ffffff;stroke-linejoin:miter;"/>
     </defs>
     <g>
      <use style="stroke:#ffffff;stroke-linejoin:miter;" x="332.485" xlink:href="#m00fae20636" y="32.178125"/>
     </g>
    </g>
    <g id="text_7">
     <!-- ANN -->
     <defs>
      <path d="M 34.1875 63.1875 
L 20.796875 26.90625 
L 47.609375 26.90625 
z
M 28.609375 72.90625 
L 39.796875 72.90625 
L 67.578125 0 
L 57.328125 0 
L 50.6875 18.703125 
L 17.828125 18.703125 
L 11.1875 0 
L 0.78125 0 
z
" id="DejaVuSans-65"/>
      <path d="M 9.8125 72.90625 
L 23.09375 72.90625 
L 55.421875 11.921875 
L 55.421875 72.90625 
L 64.984375 72.90625 
L 64.984375 0 
L 51.703125 0 
L 19.390625 60.984375 
L 19.390625 0 
L 9.8125 0 
z
" id="DejaVuSans-78"/>
     </defs>
     <g transform="translate(354.085 36.378125)scale(0.12 -0.12)">
      <use xlink:href="#DejaVuSans-65"/>
      <use x="68.408203" xlink:href="#DejaVuSans-78"/>
      <use x="143.212891" xlink:href="#DejaVuSans-78"/>
     </g>
    </g>
    <g id="line2d_51">
     <path d="M 320.485 49.791875 
L 344.485 49.791875 
" style="fill:none;stroke:#1f77b4;stroke-dasharray:1.4,2.31;stroke-dashoffset:0;stroke-width:1.4;"/>
    </g>
    <g id="line2d_52">
     <defs>
      <path d="M -4 4 
L 4 4 
L 4 -4 
L -4 -4 
z
" id="meb1cd1fd4c" style="stroke:#ffffff;stroke-linejoin:miter;"/>
     </defs>
     <g>
      <use style="fill:#1f77b4;stroke:#ffffff;stroke-linejoin:miter;" x="332.485" xlink:href="#meb1cd1fd4c" y="49.791875"/>
     </g>
    </g>
    <g id="text_8">
     <!-- OCSVM -->
     <defs>
      <path d="M 39.40625 66.21875 
Q 28.65625 66.21875 22.328125 58.203125 
Q 16.015625 50.203125 16.015625 36.375 
Q 16.015625 22.609375 22.328125 14.59375 
Q 28.65625 6.59375 39.40625 6.59375 
Q 50.140625 6.59375 56.421875 14.59375 
Q 62.703125 22.609375 62.703125 36.375 
Q 62.703125 50.203125 56.421875 58.203125 
Q 50.140625 66.21875 39.40625 66.21875 
z
M 39.40625 74.21875 
Q 54.734375 74.21875 63.90625 63.9375 
Q 73.09375 53.65625 73.09375 36.375 
Q 73.09375 19.140625 63.90625 8.859375 
Q 54.734375 -1.421875 39.40625 -1.421875 
Q 24.03125 -1.421875 14.8125 8.828125 
Q 5.609375 19.09375 5.609375 36.375 
Q 5.609375 53.65625 14.8125 63.9375 
Q 24.03125 74.21875 39.40625 74.21875 
z
" id="DejaVuSans-79"/>
      <path d="M 64.40625 67.28125 
L 64.40625 56.890625 
Q 59.421875 61.53125 53.78125 63.8125 
Q 48.140625 66.109375 41.796875 66.109375 
Q 29.296875 66.109375 22.65625 58.46875 
Q 16.015625 50.828125 16.015625 36.375 
Q 16.015625 21.96875 22.65625 14.328125 
Q 29.296875 6.6875 41.796875 6.6875 
Q 48.140625 6.6875 53.78125 8.984375 
Q 59.421875 11.28125 64.40625 15.921875 
L 64.40625 5.609375 
Q 59.234375 2.09375 53.4375 0.328125 
Q 47.65625 -1.421875 41.21875 -1.421875 
Q 24.65625 -1.421875 15.125 8.703125 
Q 5.609375 18.84375 5.609375 36.375 
Q 5.609375 53.953125 15.125 64.078125 
Q 24.65625 74.21875 41.21875 74.21875 
Q 47.75 74.21875 53.53125 72.484375 
Q 59.328125 70.75 64.40625 67.28125 
z
" id="DejaVuSans-67"/>
      <path d="M 53.515625 70.515625 
L 53.515625 60.890625 
Q 47.90625 63.578125 42.921875 64.890625 
Q 37.9375 66.21875 33.296875 66.21875 
Q 25.25 66.21875 20.875 63.09375 
Q 16.5 59.96875 16.5 54.203125 
Q 16.5 49.359375 19.40625 46.890625 
Q 22.3125 44.4375 30.421875 42.921875 
L 36.375 41.703125 
Q 47.40625 39.59375 52.65625 34.296875 
Q 57.90625 29 57.90625 20.125 
Q 57.90625 9.515625 50.796875 4.046875 
Q 43.703125 -1.421875 29.984375 -1.421875 
Q 24.8125 -1.421875 18.96875 -0.25 
Q 13.140625 0.921875 6.890625 3.21875 
L 6.890625 13.375 
Q 12.890625 10.015625 18.65625 8.296875 
Q 24.421875 6.59375 29.984375 6.59375 
Q 38.421875 6.59375 43.015625 9.90625 
Q 47.609375 13.234375 47.609375 19.390625 
Q 47.609375 24.75 44.3125 27.78125 
Q 41.015625 30.8125 33.5 32.328125 
L 27.484375 33.5 
Q 16.453125 35.6875 11.515625 40.375 
Q 6.59375 45.0625 6.59375 53.421875 
Q 6.59375 63.09375 13.40625 68.65625 
Q 20.21875 74.21875 32.171875 74.21875 
Q 37.3125 74.21875 42.625 73.28125 
Q 47.953125 72.359375 53.515625 70.515625 
z
" id="DejaVuSans-83"/>
      <path d="M 28.609375 0 
L 0.78125 72.90625 
L 11.078125 72.90625 
L 34.1875 11.53125 
L 57.328125 72.90625 
L 67.578125 72.90625 
L 39.796875 0 
z
" id="DejaVuSans-86"/>
      <path d="M 9.8125 72.90625 
L 24.515625 72.90625 
L 43.109375 23.296875 
L 61.8125 72.90625 
L 76.515625 72.90625 
L 76.515625 0 
L 66.890625 0 
L 66.890625 64.015625 
L 48.09375 14.015625 
L 38.1875 14.015625 
L 19.390625 64.015625 
L 19.390625 0 
L 9.8125 0 
z
" id="DejaVuSans-77"/>
     </defs>
     <g transform="translate(354.085 53.991875)scale(0.12 -0.12)">
      <use xlink:href="#DejaVuSans-79"/>
      <use x="78.710938" xlink:href="#DejaVuSans-67"/>
      <use x="148.535156" xlink:href="#DejaVuSans-83"/>
      <use x="212.011719" xlink:href="#DejaVuSans-86"/>
      <use x="280.419922" xlink:href="#DejaVuSans-77"/>
     </g>
    </g>
    <g id="line2d_53">
     <path d="M 320.485 67.405625 
L 344.485 67.405625 
" style="fill:none;stroke:#ff7f0e;stroke-dasharray:5.55,2.4;stroke-dashoffset:0;stroke-width:1.5;"/>
    </g>
    <g id="line2d_54">
     <defs>
      <path d="M 0 4 
C 1.060812 4 2.078319 3.578535 2.828427 2.828427 
C 3.578535 2.078319 4 1.060812 4 0 
C 4 -1.060812 3.578535 -2.078319 2.828427 -2.828427 
C 2.078319 -3.578535 1.060812 -4 0 -4 
C -1.060812 -4 -2.078319 -3.578535 -2.828427 -2.828427 
C -3.578535 -2.078319 -4 -1.060812 -4 0 
C -4 1.060812 -3.578535 2.078319 -2.828427 2.828427 
C -2.078319 3.578535 -1.060812 4 0 4 
z
" id="m7bca0e9fc8" style="stroke:#ffffff;"/>
     </defs>
     <g>
      <use style="fill:#ff7f0e;stroke:#ffffff;" x="332.485" xlink:href="#m7bca0e9fc8" y="67.405625"/>
     </g>
    </g>
    <g id="text_9">
     <!-- DBSCAN -->
     <defs>
      <path d="M 19.671875 64.796875 
L 19.671875 8.109375 
L 31.59375 8.109375 
Q 46.6875 8.109375 53.6875 14.9375 
Q 60.6875 21.78125 60.6875 36.53125 
Q 60.6875 51.171875 53.6875 57.984375 
Q 46.6875 64.796875 31.59375 64.796875 
z
M 9.8125 72.90625 
L 30.078125 72.90625 
Q 51.265625 72.90625 61.171875 64.09375 
Q 71.09375 55.28125 71.09375 36.53125 
Q 71.09375 17.671875 61.125 8.828125 
Q 51.171875 0 30.078125 0 
L 9.8125 0 
z
" id="DejaVuSans-68"/>
      <path d="M 19.671875 34.8125 
L 19.671875 8.109375 
L 35.5 8.109375 
Q 43.453125 8.109375 47.28125 11.40625 
Q 51.125 14.703125 51.125 21.484375 
Q 51.125 28.328125 47.28125 31.5625 
Q 43.453125 34.8125 35.5 34.8125 
z
M 19.671875 64.796875 
L 19.671875 42.828125 
L 34.28125 42.828125 
Q 41.5 42.828125 45.03125 45.53125 
Q 48.578125 48.25 48.578125 53.8125 
Q 48.578125 59.328125 45.03125 62.0625 
Q 41.5 64.796875 34.28125 64.796875 
z
M 9.8125 72.90625 
L 35.015625 72.90625 
Q 46.296875 72.90625 52.390625 68.21875 
Q 58.5 63.53125 58.5 54.890625 
Q 58.5 48.1875 55.375 44.234375 
Q 52.25 40.28125 46.1875 39.3125 
Q 53.46875 37.75 57.5 32.78125 
Q 61.53125 27.828125 61.53125 20.40625 
Q 61.53125 10.640625 54.890625 5.3125 
Q 48.25 0 35.984375 0 
L 9.8125 0 
z
" id="DejaVuSans-66"/>
     </defs>
     <g transform="translate(354.085 71.605625)scale(0.12 -0.12)">
      <use xlink:href="#DejaVuSans-68"/>
      <use x="77.001953" xlink:href="#DejaVuSans-66"/>
      <use x="145.589844" xlink:href="#DejaVuSans-83"/>
      <use x="209.066406" xlink:href="#DejaVuSans-67"/>
      <use x="278.890625" xlink:href="#DejaVuSans-65"/>
      <use x="347.298828" xlink:href="#DejaVuSans-78"/>
     </g>
    </g>
   </g>
   <g id="line2d_55">
    <path clip-path="url(#p7c7b7c5bb2)" d="M 85.695833 219.575 
" style="fill:none;stroke:#000000;stroke-linecap:square;stroke-width:1.4;"/>
    <g clip-path="url(#p7c7b7c5bb2)">
     <use style="stroke:#ffffff;stroke-linejoin:miter;" x="85.695833" xlink:href="#m00fae20636" y="219.575"/>
    </g>
   </g>
   <g id="line2d_56">
    <path clip-path="url(#p7c7b7c5bb2)" d="M 91.092935 -1 
L 91.153255 1.473806 
L 92.77249 31.581604 
L 96.550705 197.614781 
L 96.790592 197.649249 
L 97.210393 198.039065 
L 144.827897 200.076781 
L 145.007812 200.121917 
L 145.607528 200.148179 
L 185.788545 209.447153 
L 189.746675 209.481621 
L 217.6335 215.78352 
L 255.235735 218.958679 
L 384.174818 219.007099 
L 433 219.065095 
" style="fill:none;stroke:#1f77b4;stroke-dasharray:1.4,2.31;stroke-dashoffset:0;stroke-width:1.4;"/>
    <g clip-path="url(#p7c7b7c5bb2)">
     <use style="fill:#1f77b4;stroke:#ffffff;stroke-linejoin:miter;" x="91.092935" xlink:href="#meb1cd1fd4c" y="-1"/>
     <use style="fill:#1f77b4;stroke:#ffffff;stroke-linejoin:miter;" x="91.153255" xlink:href="#meb1cd1fd4c" y="1.473806"/>
     <use style="fill:#1f77b4;stroke:#ffffff;stroke-linejoin:miter;" x="92.77249" xlink:href="#meb1cd1fd4c" y="31.581604"/>
     <use style="fill:#1f77b4;stroke:#ffffff;stroke-linejoin:miter;" x="96.550705" xlink:href="#meb1cd1fd4c" y="197.614781"/>
     <use style="fill:#1f77b4;stroke:#ffffff;stroke-linejoin:miter;" x="96.790592" xlink:href="#meb1cd1fd4c" y="197.649249"/>
     <use style="fill:#1f77b4;stroke:#ffffff;stroke-linejoin:miter;" x="97.210393" xlink:href="#meb1cd1fd4c" y="198.039065"/>
     <use style="fill:#1f77b4;stroke:#ffffff;stroke-linejoin:miter;" x="144.827897" xlink:href="#meb1cd1fd4c" y="200.076781"/>
     <use style="fill:#1f77b4;stroke:#ffffff;stroke-linejoin:miter;" x="145.007812" xlink:href="#meb1cd1fd4c" y="200.121917"/>
     <use style="fill:#1f77b4;stroke:#ffffff;stroke-linejoin:miter;" x="145.607528" xlink:href="#meb1cd1fd4c" y="200.148179"/>
     <use style="fill:#1f77b4;stroke:#ffffff;stroke-linejoin:miter;" x="185.788545" xlink:href="#meb1cd1fd4c" y="209.447153"/>
     <use style="fill:#1f77b4;stroke:#ffffff;stroke-linejoin:miter;" x="189.746675" xlink:href="#meb1cd1fd4c" y="209.481621"/>
     <use style="fill:#1f77b4;stroke:#ffffff;stroke-linejoin:miter;" x="217.6335" xlink:href="#meb1cd1fd4c" y="215.78352"/>
     <use style="fill:#1f77b4;stroke:#ffffff;stroke-linejoin:miter;" x="255.235735" xlink:href="#meb1cd1fd4c" y="218.958679"/>
     <use style="fill:#1f77b4;stroke:#ffffff;stroke-linejoin:miter;" x="384.174818" xlink:href="#meb1cd1fd4c" y="219.007099"/>
     <use style="fill:#1f77b4;stroke:#ffffff;stroke-linejoin:miter;" x="503.69835" xlink:href="#meb1cd1fd4c" y="219.149074"/>
     <use style="fill:#1f77b4;stroke:#ffffff;stroke-linejoin:miter;" x="685.4125" xlink:href="#meb1cd1fd4c" y="219.575"/>
    </g>
   </g>
   <g id="line2d_57">
    <path clip-path="url(#p7c7b7c5bb2)" d="M 86.499721 -1 
L 86.727146 53.406413 
L 90.88818 66.790666 
L 150.844654 91.571517 
L 193.858133 131.034915 
L 245.717032 168.474549 
L 324.48282 187.16277 
L 363.74507 192.832756 
L 407.945988 196.980405 
L 433 199.868929 
" style="fill:none;stroke:#ff7f0e;stroke-dasharray:5.55,2.4;stroke-dashoffset:0;stroke-width:1.5;"/>
    <g clip-path="url(#p7c7b7c5bb2)">
     <use style="fill:#ff7f0e;stroke:#ffffff;" x="86.499721" xlink:href="#m7bca0e9fc8" y="-1"/>
     <use style="fill:#ff7f0e;stroke:#ffffff;" x="86.727146" xlink:href="#m7bca0e9fc8" y="53.406413"/>
     <use style="fill:#ff7f0e;stroke:#ffffff;" x="90.88818" xlink:href="#m7bca0e9fc8" y="66.790666"/>
     <use style="fill:#ff7f0e;stroke:#ffffff;" x="150.844654" xlink:href="#m7bca0e9fc8" y="91.571517"/>
     <use style="fill:#ff7f0e;stroke:#ffffff;" x="193.858133" xlink:href="#m7bca0e9fc8" y="131.034915"/>
     <use style="fill:#ff7f0e;stroke:#ffffff;" x="245.717032" xlink:href="#m7bca0e9fc8" y="168.474549"/>
     <use style="fill:#ff7f0e;stroke:#ffffff;" x="324.48282" xlink:href="#m7bca0e9fc8" y="187.16277"/>
     <use style="fill:#ff7f0e;stroke:#ffffff;" x="363.74507" xlink:href="#m7bca0e9fc8" y="192.832756"/>
     <use style="fill:#ff7f0e;stroke:#ffffff;" x="407.945988" xlink:href="#m7bca0e9fc8" y="196.980405"/>
     <use style="fill:#ff7f0e;stroke:#ffffff;" x="438.297848" xlink:href="#m7bca0e9fc8" y="200.479728"/>
     <use style="fill:#ff7f0e;stroke:#ffffff;" x="503.897056" xlink:href="#m7bca0e9fc8" y="207.582598"/>
     <use style="fill:#ff7f0e;stroke:#ffffff;" x="561.830286" xlink:href="#m7bca0e9fc8" y="217.141723"/>
     <use style="fill:#ff7f0e;stroke:#ffffff;" x="628.289288" xlink:href="#m7bca0e9fc8" y="219.421535"/>
     <use style="fill:#ff7f0e;stroke:#ffffff;" x="661.722292" xlink:href="#m7bca0e9fc8" y="219.572538"/>
     <use style="fill:#ff7f0e;stroke:#ffffff;" x="674.737543" xlink:href="#m7bca0e9fc8" y="219.575"/>
    </g>
   </g>
   <g id="patch_8">
    <path d="M 109.929705 190.368093 
Q 104.124012 194.343584 99.240806 197.687395 
" style="fill:none;stroke:#000000;stroke-linecap:round;"/>
    <path d="M 104.55725 196.95567 
L 99.240806 197.687395 
L 101.845292 192.995205 
" style="fill:none;stroke:#000000;stroke-linecap:round;"/>
   </g>
   <g id="text_10">
    <g id="patch_9">
     <path d="M 105.9775 188.740625 
L 185.3575 188.740625 
Q 188.9575 188.740625 188.9575 185.140625 
L 188.9575 146.652125 
Q 188.9575 143.052125 185.3575 143.052125 
L 105.9775 143.052125 
Q 102.3775 143.052125 102.3775 146.652125 
L 102.3775 185.140625 
Q 102.3775 188.740625 105.9775 188.740625 
z
" style="fill:#ffffff;fill-opacity:0.6;stroke:#ffffff;stroke-linejoin:miter;stroke-opacity:0.8;"/>
    </g>
    <!-- f1: 0.963 -->
    <defs>
     <path d="M 37.109375 75.984375 
L 37.109375 68.5 
L 28.515625 68.5 
Q 23.6875 68.5 21.796875 66.546875 
Q 19.921875 64.59375 19.921875 59.515625 
L 19.921875 54.6875 
L 34.71875 54.6875 
L 34.71875 47.703125 
L 19.921875 47.703125 
L 19.921875 0 
L 10.890625 0 
L 10.890625 47.703125 
L 2.296875 47.703125 
L 2.296875 54.6875 
L 10.890625 54.6875 
L 10.890625 58.5 
Q 10.890625 67.625 15.140625 71.796875 
Q 19.390625 75.984375 28.609375 75.984375 
z
" id="DejaVuSans-102"/>
     <path d="M 12.40625 8.296875 
L 28.515625 8.296875 
L 28.515625 63.921875 
L 10.984375 60.40625 
L 10.984375 69.390625 
L 28.421875 72.90625 
L 38.28125 72.90625 
L 38.28125 8.296875 
L 54.390625 8.296875 
L 54.390625 0 
L 12.40625 0 
z
" id="DejaVuSans-49"/>
     <path d="M 11.71875 12.40625 
L 22.015625 12.40625 
L 22.015625 0 
L 11.71875 0 
z
M 11.71875 51.703125 
L 22.015625 51.703125 
L 22.015625 39.3125 
L 11.71875 39.3125 
z
" id="DejaVuSans-58"/>
     <path d="M 10.984375 1.515625 
L 10.984375 10.5 
Q 14.703125 8.734375 18.5 7.8125 
Q 22.3125 6.890625 25.984375 6.890625 
Q 35.75 6.890625 40.890625 13.453125 
Q 46.046875 20.015625 46.78125 33.40625 
Q 43.953125 29.203125 39.59375 26.953125 
Q 35.25 24.703125 29.984375 24.703125 
Q 19.046875 24.703125 12.671875 31.3125 
Q 6.296875 37.9375 6.296875 49.421875 
Q 6.296875 60.640625 12.9375 67.421875 
Q 19.578125 74.21875 30.609375 74.21875 
Q 43.265625 74.21875 49.921875 64.515625 
Q 56.59375 54.828125 56.59375 36.375 
Q 56.59375 19.140625 48.40625 8.859375 
Q 40.234375 -1.421875 26.421875 -1.421875 
Q 22.703125 -1.421875 18.890625 -0.6875 
Q 15.09375 0.046875 10.984375 1.515625 
z
M 30.609375 32.421875 
Q 37.25 32.421875 41.125 36.953125 
Q 45.015625 41.5 45.015625 49.421875 
Q 45.015625 57.28125 41.125 61.84375 
Q 37.25 66.40625 30.609375 66.40625 
Q 23.96875 66.40625 20.09375 61.84375 
Q 16.21875 57.28125 16.21875 49.421875 
Q 16.21875 41.5 20.09375 36.953125 
Q 23.96875 32.421875 30.609375 32.421875 
z
" id="DejaVuSans-57"/>
     <path d="M 33.015625 40.375 
Q 26.375 40.375 22.484375 35.828125 
Q 18.609375 31.296875 18.609375 23.390625 
Q 18.609375 15.53125 22.484375 10.953125 
Q 26.375 6.390625 33.015625 6.390625 
Q 39.65625 6.390625 43.53125 10.953125 
Q 47.40625 15.53125 47.40625 23.390625 
Q 47.40625 31.296875 43.53125 35.828125 
Q 39.65625 40.375 33.015625 40.375 
z
M 52.59375 71.296875 
L 52.59375 62.3125 
Q 48.875 64.0625 45.09375 64.984375 
Q 41.3125 65.921875 37.59375 65.921875 
Q 27.828125 65.921875 22.671875 59.328125 
Q 17.53125 52.734375 16.796875 39.40625 
Q 19.671875 43.65625 24.015625 45.921875 
Q 28.375 48.1875 33.59375 48.1875 
Q 44.578125 48.1875 50.953125 41.515625 
Q 57.328125 34.859375 57.328125 23.390625 
Q 57.328125 12.15625 50.6875 5.359375 
Q 44.046875 -1.421875 33.015625 -1.421875 
Q 20.359375 -1.421875 13.671875 8.265625 
Q 6.984375 17.96875 6.984375 36.375 
Q 6.984375 53.65625 15.1875 63.9375 
Q 23.390625 74.21875 37.203125 74.21875 
Q 40.921875 74.21875 44.703125 73.484375 
Q 48.484375 72.75 52.59375 71.296875 
z
" id="DejaVuSans-54"/>
     <path d="M 40.578125 39.3125 
Q 47.65625 37.796875 51.625 33 
Q 55.609375 28.21875 55.609375 21.1875 
Q 55.609375 10.40625 48.1875 4.484375 
Q 40.765625 -1.421875 27.09375 -1.421875 
Q 22.515625 -1.421875 17.65625 -0.515625 
Q 12.796875 0.390625 7.625 2.203125 
L 7.625 11.71875 
Q 11.71875 9.328125 16.59375 8.109375 
Q 21.484375 6.890625 26.8125 6.890625 
Q 36.078125 6.890625 40.9375 10.546875 
Q 45.796875 14.203125 45.796875 21.1875 
Q 45.796875 27.640625 41.28125 31.265625 
Q 36.765625 34.90625 28.71875 34.90625 
L 20.21875 34.90625 
L 20.21875 43.015625 
L 29.109375 43.015625 
Q 36.375 43.015625 40.234375 45.921875 
Q 44.09375 48.828125 44.09375 54.296875 
Q 44.09375 59.90625 40.109375 62.90625 
Q 36.140625 65.921875 28.71875 65.921875 
Q 24.65625 65.921875 20.015625 65.03125 
Q 15.375 64.15625 9.8125 62.3125 
L 9.8125 71.09375 
Q 15.4375 72.65625 20.34375 73.4375 
Q 25.25 74.21875 29.59375 74.21875 
Q 40.828125 74.21875 47.359375 69.109375 
Q 53.90625 64.015625 53.90625 55.328125 
Q 53.90625 49.265625 50.4375 45.09375 
Q 46.96875 40.921875 40.578125 39.3125 
z
" id="DejaVuSans-51"/>
    </defs>
    <g style="fill:#1f77b4;" transform="translate(118.632812 155.77025)scale(0.12 -0.12)">
     <use xlink:href="#DejaVuSans-102"/>
     <use x="35.205078" xlink:href="#DejaVuSans-49"/>
     <use x="98.828125" xlink:href="#DejaVuSans-58"/>
     <use x="132.519531" xlink:href="#DejaVuSans-32"/>
     <use x="164.306641" xlink:href="#DejaVuSans-48"/>
     <use x="227.929688" xlink:href="#DejaVuSans-46"/>
     <use x="259.716797" xlink:href="#DejaVuSans-57"/>
     <use x="323.339844" xlink:href="#DejaVuSans-54"/>
     <use x="386.962891" xlink:href="#DejaVuSans-51"/>
    </g>
    <!-- kernel: linear -->
    <defs>
     <path d="M 9.078125 75.984375 
L 18.109375 75.984375 
L 18.109375 31.109375 
L 44.921875 54.6875 
L 56.390625 54.6875 
L 27.390625 29.109375 
L 57.625 0 
L 45.90625 0 
L 18.109375 26.703125 
L 18.109375 0 
L 9.078125 0 
z
" id="DejaVuSans-107"/>
    </defs>
    <g style="fill:#1f77b4;" transform="translate(105.9775 169.207625)scale(0.12 -0.12)">
     <use xlink:href="#DejaVuSans-107"/>
     <use x="57.863281" xlink:href="#DejaVuSans-101"/>
     <use x="119.386719" xlink:href="#DejaVuSans-114"/>
     <use x="160.484375" xlink:href="#DejaVuSans-110"/>
     <use x="223.863281" xlink:href="#DejaVuSans-101"/>
     <use x="285.386719" xlink:href="#DejaVuSans-108"/>
     <use x="313.169922" xlink:href="#DejaVuSans-58"/>
     <use x="346.861328" xlink:href="#DejaVuSans-32"/>
     <use x="378.648438" xlink:href="#DejaVuSans-108"/>
     <use x="406.431641" xlink:href="#DejaVuSans-105"/>
     <use x="434.214844" xlink:href="#DejaVuSans-110"/>
     <use x="497.59375" xlink:href="#DejaVuSans-101"/>
     <use x="559.117188" xlink:href="#DejaVuSans-97"/>
     <use x="620.396484" xlink:href="#DejaVuSans-114"/>
    </g>
    <!-- $\nu$: 0.1 -->
    <defs>
     <path d="M 14.984375 0 
L 8.9375 54.6875 
L 18.609375 54.6875 
L 23.78125 8.796875 
Q 30.8125 14.84375 37.359375 23.25 
Q 42.28125 29.546875 43.5625 35.015625 
Q 44.140625 37.59375 43.890625 42.484375 
Q 43.65625 48.296875 39.75 54.6875 
L 48.828125 54.6875 
L 48.828125 54.6875 
Q 51.375 50.34375 52.390625 44.28125 
Q 53.375 38.71875 52.640625 34.90625 
Q 50.78125 25.34375 42.484375 16.796875 
Q 31.640625 5.671875 24.5625 0 
z
" id="DejaVuSans-Oblique-957"/>
    </defs>
    <g style="fill:#1f77b4;" transform="translate(128.8075 182.645)scale(0.12 -0.12)">
     <use transform="translate(0 0.78125)" xlink:href="#DejaVuSans-Oblique-957"/>
     <use transform="translate(55.859375 0.78125)" xlink:href="#DejaVuSans-58"/>
     <use transform="translate(89.550781 0.78125)" xlink:href="#DejaVuSans-32"/>
     <use transform="translate(121.337891 0.78125)" xlink:href="#DejaVuSans-48"/>
     <use transform="translate(184.960938 0.78125)" xlink:href="#DejaVuSans-46"/>
     <use transform="translate(216.748047 0.78125)" xlink:href="#DejaVuSans-49"/>
    </g>
   </g>
   <g id="patch_10">
    <path d="M 240.032211 135.818377 
Q 242.702869 151.159841 245.181783 165.399837 
" style="fill:none;stroke:#000000;stroke-linecap:round;"/>
    <path d="M 246.723015 160.25935 
L 245.181783 165.399837 
L 241.994133 161.082559 
" style="fill:none;stroke:#000000;stroke-linecap:round;"/>
   </g>
   <g id="text_11">
    <g id="patch_11">
     <path d="M 208.1375 133.345625 
L 263.1125 133.345625 
Q 266.7125 133.345625 266.7125 129.745625 
L 266.7125 91.257125 
Q 266.7125 87.657125 263.1125 87.657125 
L 208.1375 87.657125 
Q 204.5375 87.657125 204.5375 91.257125 
L 204.5375 129.745625 
Q 204.5375 133.345625 208.1375 133.345625 
z
" style="fill:#ffffff;fill-opacity:0.6;stroke:#ffffff;stroke-linejoin:miter;stroke-opacity:0.8;"/>
    </g>
    <!-- f1: 0.803 -->
    <defs>
     <path d="M 31.78125 34.625 
Q 24.75 34.625 20.71875 30.859375 
Q 16.703125 27.09375 16.703125 20.515625 
Q 16.703125 13.921875 20.71875 10.15625 
Q 24.75 6.390625 31.78125 6.390625 
Q 38.8125 6.390625 42.859375 10.171875 
Q 46.921875 13.96875 46.921875 20.515625 
Q 46.921875 27.09375 42.890625 30.859375 
Q 38.875 34.625 31.78125 34.625 
z
M 21.921875 38.8125 
Q 15.578125 40.375 12.03125 44.71875 
Q 8.5 49.078125 8.5 55.328125 
Q 8.5 64.0625 14.71875 69.140625 
Q 20.953125 74.21875 31.78125 74.21875 
Q 42.671875 74.21875 48.875 69.140625 
Q 55.078125 64.0625 55.078125 55.328125 
Q 55.078125 49.078125 51.53125 44.71875 
Q 48 40.375 41.703125 38.8125 
Q 48.828125 37.15625 52.796875 32.3125 
Q 56.78125 27.484375 56.78125 20.515625 
Q 56.78125 9.90625 50.3125 4.234375 
Q 43.84375 -1.421875 31.78125 -1.421875 
Q 19.734375 -1.421875 13.25 4.234375 
Q 6.78125 9.90625 6.78125 20.515625 
Q 6.78125 27.484375 10.78125 32.3125 
Q 14.796875 37.15625 21.921875 38.8125 
z
M 18.3125 54.390625 
Q 18.3125 48.734375 21.84375 45.5625 
Q 25.390625 42.390625 31.78125 42.390625 
Q 38.140625 42.390625 41.71875 45.5625 
Q 45.3125 48.734375 45.3125 54.390625 
Q 45.3125 60.0625 41.71875 63.234375 
Q 38.140625 66.40625 31.78125 66.40625 
Q 25.390625 66.40625 21.84375 63.234375 
Q 18.3125 60.0625 18.3125 54.390625 
z
" id="DejaVuSans-56"/>
    </defs>
    <g style="fill:#ff7f0e;" transform="translate(208.590313 100.37525)scale(0.12 -0.12)">
     <use xlink:href="#DejaVuSans-102"/>
     <use x="35.205078" xlink:href="#DejaVuSans-49"/>
     <use x="98.828125" xlink:href="#DejaVuSans-58"/>
     <use x="132.519531" xlink:href="#DejaVuSans-32"/>
     <use x="164.306641" xlink:href="#DejaVuSans-48"/>
     <use x="227.929688" xlink:href="#DejaVuSans-46"/>
     <use x="259.716797" xlink:href="#DejaVuSans-56"/>
     <use x="323.339844" xlink:href="#DejaVuSans-48"/>
     <use x="386.962891" xlink:href="#DejaVuSans-51"/>
    </g>
    <!-- MinPts: 5 -->
    <defs>
     <path d="M 19.671875 64.796875 
L 19.671875 37.40625 
L 32.078125 37.40625 
Q 38.96875 37.40625 42.71875 40.96875 
Q 46.484375 44.53125 46.484375 51.125 
Q 46.484375 57.671875 42.71875 61.234375 
Q 38.96875 64.796875 32.078125 64.796875 
z
M 9.8125 72.90625 
L 32.078125 72.90625 
Q 44.34375 72.90625 50.609375 67.359375 
Q 56.890625 61.8125 56.890625 51.125 
Q 56.890625 40.328125 50.609375 34.8125 
Q 44.34375 29.296875 32.078125 29.296875 
L 19.671875 29.296875 
L 19.671875 0 
L 9.8125 0 
z
" id="DejaVuSans-80"/>
    </defs>
    <g style="fill:#ff7f0e;" transform="translate(208.1375 113.812625)scale(0.12 -0.12)">
     <use xlink:href="#DejaVuSans-77"/>
     <use x="86.279297" xlink:href="#DejaVuSans-105"/>
     <use x="114.0625" xlink:href="#DejaVuSans-110"/>
     <use x="177.441406" xlink:href="#DejaVuSans-80"/>
     <use x="237.744141" xlink:href="#DejaVuSans-116"/>
     <use x="276.953125" xlink:href="#DejaVuSans-115"/>
     <use x="329.052734" xlink:href="#DejaVuSans-58"/>
     <use x="362.744141" xlink:href="#DejaVuSans-32"/>
     <use x="394.53125" xlink:href="#DejaVuSans-53"/>
    </g>
    <!-- $\epsilon$: 1.0 -->
    <defs>
     <path d="M 19.734375 29.5 
Q 14.453125 30.671875 12.15625 33.84375 
Q 10.453125 36.078125 10.453125 39.109375 
Q 10.453125 47.40625 18.359375 52.25 
Q 24.609375 56.0625 34.1875 56.0625 
Q 37.890625 56.0625 41.9375 55.46875 
Q 46 54.890625 50.53125 53.71875 
L 48.96875 45.5625 
Q 44.484375 46.96875 40.71875 47.609375 
Q 36.859375 48.25 33.40625 48.25 
Q 27.59375 48.25 23.78125 46 
Q 19.1875 43.3125 19.1875 39.40625 
Q 19.1875 36.8125 21.578125 35.015625 
Q 24.421875 32.859375 30.078125 32.859375 
L 37.640625 32.859375 
L 36.234375 25.4375 
L 29 25.4375 
Q 22.265625 25.4375 18.3125 22.953125 
Q 12.9375 19.578125 12.9375 14.3125 
Q 12.9375 10.984375 15.828125 8.796875 
Q 19.4375 6.0625 26.8125 6.0625 
Q 31.34375 6.0625 35.6875 6.9375 
Q 40.046875 7.859375 43.84375 9.671875 
L 42.1875 1.3125 
Q 37.546875 -0.046875 33.296875 -0.734375 
Q 29.046875 -1.421875 25.140625 -1.421875 
Q 13.53125 -1.421875 8.0625 3.03125 
Q 3.90625 6.453125 3.90625 12.203125 
Q 3.90625 19.96875 9.375 24.75 
Q 13.421875 28.328125 19.734375 29.5 
z
" id="DejaVuSans-Oblique-949"/>
    </defs>
    <g style="fill:#ff7f0e;" transform="translate(218.885 127.25)scale(0.12 -0.12)">
     <use transform="translate(0 0.78125)" xlink:href="#DejaVuSans-Oblique-949"/>
     <use transform="translate(54.052734 0.78125)" xlink:href="#DejaVuSans-58"/>
     <use transform="translate(87.744141 0.78125)" xlink:href="#DejaVuSans-32"/>
     <use transform="translate(119.53125 0.78125)" xlink:href="#DejaVuSans-49"/>
     <use transform="translate(183.154297 0.78125)" xlink:href="#DejaVuSans-46"/>
     <use transform="translate(214.941406 0.78125)" xlink:href="#DejaVuSans-48"/>
    </g>
   </g>
   <g id="patch_12">
    <path d="M 334.735373 157.892764 
Q 329.940127 171.582709 325.514482 184.217478 
" style="fill:none;stroke:#000000;stroke-linecap:round;"/>
    <path d="M 329.36634 180.480743 
L 325.514482 184.217478 
L 324.836208 178.893951 
" style="fill:none;stroke:#000000;stroke-linecap:round;"/>
   </g>
   <g id="text_12">
    <g id="patch_13">
     <path d="M 316.0865 155.503625 
L 371.0615 155.503625 
Q 374.6615 155.503625 374.6615 151.903625 
L 374.6615 113.415125 
Q 374.6615 109.815125 371.0615 109.815125 
L 316.0865 109.815125 
Q 312.4865 109.815125 312.4865 113.415125 
L 312.4865 151.903625 
Q 312.4865 155.503625 316.0865 155.503625 
z
" style="fill:#ffffff;fill-opacity:0.6;stroke:#ffffff;stroke-linejoin:miter;stroke-opacity:0.8;"/>
    </g>
    <!-- f1: 0.787 -->
    <defs>
     <path d="M 8.203125 72.90625 
L 55.078125 72.90625 
L 55.078125 68.703125 
L 28.609375 0 
L 18.3125 0 
L 43.21875 64.59375 
L 8.203125 64.59375 
z
" id="DejaVuSans-55"/>
    </defs>
    <g style="fill:#ff7f0e;" transform="translate(316.539312 122.53325)scale(0.12 -0.12)">
     <use xlink:href="#DejaVuSans-102"/>
     <use x="35.205078" xlink:href="#DejaVuSans-49"/>
     <use x="98.828125" xlink:href="#DejaVuSans-58"/>
     <use x="132.519531" xlink:href="#DejaVuSans-32"/>
     <use x="164.306641" xlink:href="#DejaVuSans-48"/>
     <use x="227.929688" xlink:href="#DejaVuSans-46"/>
     <use x="259.716797" xlink:href="#DejaVuSans-55"/>
     <use x="323.339844" xlink:href="#DejaVuSans-56"/>
     <use x="386.962891" xlink:href="#DejaVuSans-55"/>
    </g>
    <!-- MinPts: 8 -->
    <g style="fill:#ff7f0e;" transform="translate(316.0865 135.970625)scale(0.12 -0.12)">
     <use xlink:href="#DejaVuSans-77"/>
     <use x="86.279297" xlink:href="#DejaVuSans-105"/>
     <use x="114.0625" xlink:href="#DejaVuSans-110"/>
     <use x="177.441406" xlink:href="#DejaVuSans-80"/>
     <use x="237.744141" xlink:href="#DejaVuSans-116"/>
     <use x="276.953125" xlink:href="#DejaVuSans-115"/>
     <use x="329.052734" xlink:href="#DejaVuSans-58"/>
     <use x="362.744141" xlink:href="#DejaVuSans-32"/>
     <use x="394.53125" xlink:href="#DejaVuSans-56"/>
    </g>
    <!-- $\epsilon$: 1.0 -->
    <g style="fill:#ff7f0e;" transform="translate(326.834 149.408)scale(0.12 -0.12)">
     <use transform="translate(0 0.78125)" xlink:href="#DejaVuSans-Oblique-949"/>
     <use transform="translate(54.052734 0.78125)" xlink:href="#DejaVuSans-58"/>
     <use transform="translate(87.744141 0.78125)" xlink:href="#DejaVuSans-32"/>
     <use transform="translate(119.53125 0.78125)" xlink:href="#DejaVuSans-49"/>
     <use transform="translate(183.154297 0.78125)" xlink:href="#DejaVuSans-46"/>
     <use transform="translate(214.941406 0.78125)" xlink:href="#DejaVuSans-48"/>
    </g>
   </g>
  </g>
 </g>
 <defs>
  <clipPath id="p7c7b7c5bb2">
   <rect height="221.58" width="359.83" x="55.71" y="16.46"/>
  </clipPath>
 </defs>
</svg>
